<?xml version="1.0" encoding="utf-8"?>
<!-- Generator: Adobe Illustrator 24.1.3, SVG Export Plug-In . SVG Version: 6.00 Build 0)  -->
<svg version="1.1" xmlns="http://www.w3.org/2000/svg" xmlns:xlink="http://www.w3.org/1999/xlink" x="0px" y="0px"
	 viewBox="0 0 8291.3 2664.4" style="enable-background:new 0 0 8291.3 2664.4;" xml:space="preserve">
<style type="text/css">
	.st0{display:none;}
	.st1{display:inline;fill:#DCDEF2;}
	.st2{display:inline;fill:#131572;}
	.st3{display:inline;}
	.st4{fill:#EA8E50;}
	.st5{fill:#1E3D70;}
	.st6{display:inline;fill:#233862;}
	.st7{display:inline;fill:#3C4199;}
	.st8{fill:#9FA1D3;}
	.st9{display:inline;fill:#FFB07B;}
	.st10{display:inline;fill:#EAF0F4;}
	.st11{display:inline;fill:#C6CACC;}
	.st12{fill:#EAF0F4;}
	.st13{display:inline;fill:#EA8E50;}
	.st14{display:inline;fill:#163560;}
	.st15{display:inline;fill:#5E60C1;}
	.st16{display:inline;fill:#E49963;}
	.st17{display:inline;fill:#49C949;}
	.st18{display:inline;fill:#89F18A;}
	.st19{display:inline;fill:#D68D5D;}
	.st20{fill:#5E60C1;}
	.st21{fill:#89F18A;}
	.st22{display:inline;fill:#C65447;}
	.st23{display:inline;fill:#AA413E;}
	.st24{display:inline;fill:#B5453C;}
	.st25{display:inline;fill:#FFFFFF;}
	.st26{fill:#E8C6A7;}
	.st27{display:inline;fill:#C69D7B;}
	.st28{display:inline;fill:#E8C6A7;}
	.st29{display:inline;fill:#FFB27D;}
	.st30{display:inline;fill:#2C3A64;}
	.st31{display:inline;fill:#ED975D;}
	.st32{fill:#131572;}
	.st33{fill:#DCDEF2;}
	.st34{fill:#F3F8FF;}
	.st35{fill:#AEC5F6;}
	.st36{fill:#49C949;}
	.st37{fill:#233862;}
	.st38{fill:#27385F;}
	.st39{fill:#3C4199;}
	.st40{fill:#EBAF7F;}
	.st41{fill:#E6A26E;}
	.st42{fill:#C65447;}
	.st43{fill:#C28B60;}
	.st44{fill:#C6CACC;}
	.st45{fill:#7398A5;}
	.st46{fill:#AA413E;}
	.st47{fill:#D09766;}
	.st48{fill:#5974C6;}
	.st49{fill:#384987;}
	.st50{fill:#7F98EC;}
</style>
<g id="_x3C_Layer_x3E_" class="st0">
	<path class="st1" d="M7955,2655.2H389.5c-1.1-5.2-2.3-10.5-3.4-15.8c-79-375.4-110.6-968.9,317.3-1383.8
		c865.3-839,1983.5-137.7,2403.1-158.2c419.6-20.5,443.2-825.5,1696.9-921.7c969.3-74.3,2561.2-80.2,2221.6,1235.1
		c-224.3,868.8,830.5,591.9,927.8,1228.6C7953.6,2644.6,7954.3,2649.8,7955,2655.2z"/>
	<path class="st2" d="M8291.3,2642.1v10.3c0,1.5-1.2,2.7-2.7,2.7H2.3c-1.5,0-2.7-1.2-2.7-2.7v-10.3c0-1.5,1.2-2.7,2.7-2.7h8286.3
		C8290.1,2639.4,8291.3,2640.6,8291.3,2642.1z"/>
	<g class="st3">
		<path class="st4" d="M2061,1607.3l18.9,15.4c0,0,51.8-18.6,63.5,43c0,0,3.1,26.2-13.5,26.3c-16.6,0.1-9.8-2.9-33.3-2.2
			c-23.5,0.7-43-11.7-46.5-30.8l-11.3-16.2L2061,1607.3z"/>
		<path class="st5" d="M2058.8,1640.3c15.1-15.8,13.9-27.4,13.9-27.4s-174.9-143.2-192.6-154.8c-12.1-7.9-140.9-122.1-201.1-191.7
			c-29.9-34.5-66.9-21.1-109.2-9l-34.9,10c-42.1,12.1-53,70.9-18.5,99.5c97.2,80.6,259,171.2,289.3,190.2
			c75.1,47.3,222.2,103.4,222.2,103.4S2045.8,1653.8,2058.8,1640.3z"/>
	</g>
	<path class="st6" d="M2258.4,2519.9c0,0,42.4,31.8,107.5,15c0,0,52.4-11.9,63.9,14.2c0,0-80.4,40.9-100.8,52
		c-15.3,8.4-31.3,21.7-42.7,32c-9,8.1-22.9,7-30.5-2.4c-3.5-4.4-7.6-9.5-12-15.5c-12.4-16.8-41.3-71.1-41.3-71.1L2258.4,2519.9z"/>
	<path class="st7" d="M2283.3,2503.8c0,0-25.8,59.6-85.5,48.6c0,0-121.7-100.5-205.2-205c-27.1-33.9-50.2-68.2-63.8-99.7
		c-55.4-128.2-204.8-319.4-299.8-416.3l237.7-86c0,0,76.1,153.2,177.5,341.3C2117.2,2222.4,2203.2,2376.1,2283.3,2503.8z"/>
	<g class="st3">
		<path class="st8" d="M2297.2,1372.4c1.6-14.8,2-29.4,1.4-43.7c-0.3-6.6,3.4-12.8,9.4-15.6l70.2-32.6c7.5-3.5,11.2-12.2,8.3-20
			l-24.2-66.6c-2.7-7.5-10.6-11.7-18.4-9.8l-69.2,17c-6.8,1.7-13.8-1.3-17.5-7.3c-15.8-25.8-35.7-49-58.8-68.6
			c-5.6-4.8-7.3-12.8-4-19.5l19.1-39c3.7-7.4,1.1-16.4-5.9-20.9l-59.4-37.6c-7.1-4.5-16.3-2.8-21.4,3.8l-41.7,54.7
			c-12.8-3.2-26-5.6-39.5-7.1c-18.1-2-35.9-2.2-53.4-0.8c-6.6,0.5-12.9-3.1-15.7-9.1l-26.3-56.6c-3.6-7.7-12.5-11.4-20.5-8.5
			l-65.4,23.8c-8,2.9-12.5,11.3-10.5,19.6l14.2,57.9c1.6,6.7-1.1,13.6-6.8,17.4c-18.5,11.9-35.6,26-50.9,41.9
			c-4.9,5.1-12.6,6.4-19,3.3l-63.2-31.1c-7.5-3.7-16.5-1.1-20.9,5.9l-37.5,59.1c-4.5,7.2-2.8,16.6,3.9,21.7l61.5,46.8
			c5.2,3.9,7.4,10.6,5.7,16.9c-3.7,14-6.5,28.4-8.1,43.2c-0.9,7.9-1.4,15.7-1.6,23.4c-0.2,6.4-3.9,12.1-9.7,14.8l-67.4,31.3
			c-7.5,3.5-11.1,12.1-8.3,19.9l23.9,65.8c2.9,8,11.4,12.5,19.6,10.5l54.9-13.5c7.3-1.8,14.9,1.6,18.3,8.3
			c13.6,26.3,31.1,50.2,52,71.1c5,5,6.3,12.6,3.2,18.9l-28,57c-3.8,7.6-1.1,16.9,6,21.5l59,37.4c7.1,4.5,16.4,2.8,21.4-3.9
			l40.9-53.7c4.2-5.5,11.3-7.8,17.9-5.8c15.8,4.6,32.3,7.9,49.3,9.8c9.1,1,18.2,1.5,27.2,1.6c6.2,0.1,11.9,3.7,14.5,9.4l26.7,57.5
			c3.6,7.8,12.6,11.5,20.7,8.6l65.5-23.8c7.8-2.8,12.3-11.1,10.3-19.2l-11.3-46.2c-1.8-7.3,1.6-14.8,8.2-18.3
			c33.5-17.5,63.3-41.6,87.4-70.7c4.8-5.7,12.8-7.4,19.5-4.2l51.1,25.1c7.4,3.7,16.4,1.1,20.9-5.9l37.4-59.1
			c4.6-7.2,2.9-16.7-3.9-21.9l-59-44.9c-4.9-3.7-7.2-9.9-6.1-16C2295.1,1388.2,2296.3,1380.3,2297.2,1372.4z M2075,1484.2
			c-147.5,52.7-270-100.6-185.2-233.1c12.7-19.9,41.4-43,63.5-51.1c147.7-54.4,271.1,98.2,188,230.9
			C2128.2,1451.9,2098.4,1475.9,2075,1484.2z"/>
	</g>
	<path class="st6" d="M2044.2,2086.8l-51.6,260.6c-27.1-33.9-50.2-68.2-63.8-99.7c-55.4-128.2-204.8-319.4-299.8-416.3l237.7-86
		C1866.7,1745.5,1942.8,1898.7,2044.2,2086.8z"/>
	<path class="st6" d="M1849.8,2554.5c0,0-2.6,47.5,55,53.9c0,0,34.8,0.7,34.9,31h-169.4c0,0-4.9-12.2-6-38.4
		c-0.9-20.1,19.5-72.6,19.5-72.6L1849.8,2554.5z"/>
	<path class="st7" d="M1788.7,1745.5c0,0,105.9,116.4,173.1,326c36.6,114.1-67,400.9-87.2,500.5c0,0-69.5,5.9-117-12.5
		c0,0-3.6-205.8,24.2-364.4c15.6-88.8-139.4-189.9-207.2-350.3c-46.1-109.1,10-107.3,78.9-109.9L1788.7,1745.5z"/>
	<path class="st9" d="M1666.5,1226.3c-58.9,33.3-179.6,2.6-179.6,2.6s49-56,26.7-146.2l46.3,23.5l49.7,25.2c0,0,3.2,15.9,5.4,44.5
		c0.6,7.4,1.1,15.6,1.4,24.6C1646.7,1209.7,1666.5,1226.3,1666.5,1226.3z"/>
	<path class="st10" d="M1882.5,1739.5c0,10.4-11.9,15.3-14.5,15.8c-23.8,4.3-90.1,30.2-149.9,36.1c-50.3,5.3-97.1,0.3-148.4-10
		c-6.8-1.4-22.8-5.7-23.9-12.2c-1.4-7.1-198-400.8-45.2-569.9c3.6-4,33.8,3.2,61.4,9.7c25.5,6,48.9,2.7,69.7-5.7l25.9,13.6
		c31.8,17.7,91.9,80.6,98.9,130c3.6,25.1,17.9,43.7,22.1,65.8c1.5,8.2,3.1,16.1,4.7,23.9c3.1,15.3,6.4,29.8,9.7,43.6
		c9,37.3,18.5,69.5,27.8,97.2c9.9,29.5,19.6,54,28.3,74.5c11.3,26.6,20.8,46.5,26.7,61.7C1880.1,1724.3,1882.5,1732.7,1882.5,1739.5
		z"/>
	<path class="st11" d="M1875.9,1713.5c-277.5-130.8-373.7-381.9-373.7-381.9s225.5,83.2,281.1,104.8c3.1,15.3,6.4,29.8,9.7,43.6
		c9,37.3,18.5,69.5,27.8,97.2c9.9,29.5,19.6,54,28.3,74.5C1860.4,1678.4,1870,1698.3,1875.9,1713.5z"/>
	<g class="st3">
		<path class="st12" d="M2038.3,1637.8l24,8.8c0,0,48-34,77.9,21.3c0,0,10.8,24.1-6.3,29.4c-17.1,5.2-10.9,0.3-35,8.3
			c-24.1,8-47.8,2.2-56.9-15l-16.3-12L2038.3,1637.8z"/>
		<path class="st12" d="M2058,1671.7c8.9-23.1,12.9-33.6,12.9-33.6s-181.2-147.7-199.7-160.4c-12.6-8.6-137.9-102.3-198.9-175.2
			c-30.3-36.2-78.1-52.7-124.3-43.1l-38,8c-45.9,9.6-60.9,67.8-25.2,98.3c100.4,86,269.6,185.8,301.2,206.6
			c78.3,51.5,251.6,123.7,251.6,123.7S2051.1,1689.8,2058,1671.7z"/>
	</g>
	<path class="st13" d="M1615.1,1176c-57.9,3.3-95.6-44.6-95.6-44.6s26.2-14.5,40.5-25.2l49.7,25.2
		C1609.6,1131.4,1612.8,1147.4,1615.1,1176z"/>
	<path class="st9" d="M1639.7,1116.5c0,0-87.8,63-126.2,7.7c-38.4-55.3-75.6-84.4-21.2-126.9c54.4-42.6,80.1-29.1,97.4-13.8
		C1607.1,998.8,1661.6,1098.7,1639.7,1116.5z"/>
	<path class="st6" d="M1599.1,933.6c-3.2-21.2-10.2-36.2-10.2-36.2s-5.5,22.8-47.2,19.7c-41.7-3.1-107.8,4.1-129.8,51.6
		c-1.4,3-2.7,6.1-3.8,9.3c-4-10.5-4.9-26.3-4.9-26.3c-7.9,20.5,0,46.1,0,46.1h0c-0.1,0.7-0.2,1.5-0.3,2.2c-9.2,7.8-16.9,32-16.9,32
		c2.8-6.7,9.6-11.2,15.6-13.9c-0.2,37,14.8,73.1,41.1,83.9c38.5,15.7,38.2,3.7,76.9,29.4c0,0,10.4-12.9,3.3-21.5
		c-7.1-8.7-33.8-21.2-18.9-33.8c15-12.6,20.5,1.6,26-7.1c5.5-8.7-22-33.8,13.4-57.4C1578.6,987.9,1602.2,954.8,1599.1,933.6z"/>
	<path class="st14" d="M6516.1,2561.8c0,0,4.7,76.3,19.5,77.4c2,0.1,74.9,0.1,74.9,0.1h93.2c0,0-0.7-23-27.9-27.7
		c-27.2-4.7-72.7-23.9-89.2-59.8C6569.2,2514.1,6516.1,2561.8,6516.1,2561.8z"/>
	<path class="st7" d="M6147.6,1934.9c13.3,25.1,28.6,48.7,44.5,71c48.9,68.9,102.2,125.7,111.5,179.4c1.8,10.7,4.8,22.2,8.6,34.4
		c3.9,12.3,8.7,25.2,14.2,38.6c20.8,50.3,51.8,106.7,82.8,157.9c53.6,88.6,104,162.5,104,162.5l92.4-4.4
		c-3.7-10.3-44-132.6-98-282.1c-21.9-60.7-45.2-125.2-67.7-187.5c-3-8.3-6-16.6-9-24.8c-6.9-19-13.6-37.8-20.2-56.1
		c-50.6-140.3-91-252.1-91-252.1s-202.4-85.5-223.4-30.1C6079.1,1787.3,6093.2,1832.1,6147.6,1934.9z"/>
	<path class="st6" d="M6317.6,2479.2c0,0-33.9,31.4-27.2,53.7c6.6,22.3,37.2,37.2,41.3,64.4c4.1,27.3,20.6,42.1,35.5,42.1
		c14.9,0,70.9,0,70.9,0s10.9-19.2-15.5-25c-26.4-5.8-36.4-37.8-34.7-67.5c1.7-29.7-2.5-69.4-2.5-69.4l-56.2-13.2L6317.6,2479.2z"/>
	<path class="st15" d="M6347.6,1761.2c0,0,213,345.5,213,373c0,60.8-160.9,410.9-160.9,410.9s-85.4-45.1-82-76.8
		c0,0,51.3-245.7,66.2-285.2c14.9-39.5-269.2-188.3-284.1-368.1L6347.6,1761.2z"/>
	<path class="st16" d="M6452,1583.6c0,0,43.9,25,56.2,25c12.3,0,60.6-9.3,74-2.5c13.5,6.9,37.8,34.5,42.4,43.6
		c8.2,16.2-33.1,9.1-52.6-4.8c-2.8-2-6.4-2.8-9.8-2c-10.1,2.2-31.1,6-41.3,2.3c-13.6-5-85.5-10.7-85.5-10.7L6452,1583.6z"/>
	<path class="st17" d="M6117.8,1243.4c0,0,45.5,323.6,120.9,352.6c37.2,14.3,201.6,46.7,250.3,50c0,0,11.9-9.7,9-49
		c0,0-172.3-63.2-196.7-97.6c-36.4-51.2,22.6-209.1-23.1-257.2C6232.5,1194.1,6155.5,1173.4,6117.8,1243.4z"/>
	<path class="st16" d="M6295.8,1223c-60.9,15.7-161.8-40.7-161.8-40.7s39.2-26.3,53.7-84.2c0.7-2.9,1.4-5.9,2-9
		c6.4-1.4,18.4-3.9,31.3-6.6l46.5,41.7c0,0-1.1,17.3-6.9,47c-1,5.2-2.2,10.8-3.5,16.7C6282.1,1203.4,6295.8,1223,6295.8,1223z"/>
	<path class="st18" d="M6069.6,1475.3c8.7,117.3-2.7,295.6,7.1,326.5c8.5,26.6,105.8,10.8,144.6,1.9c14.4-3.3,31.8-8,49.7-13.6
		c50.1-15.5,104.8-37.7,110.6-54.2c0.2-0.6,0.4-1.3,0.5-1.9c0.5-2.4,0.4-4.6-0.1-6.9c-2-8.4-9.5-17.5-10.4-38.2
		c-1-23.2-0.8-50.5-1.7-79.9c0-3.3-0.1-6.9-0.5-10.2l0-1.2c0-0.6,0-1.2,0-1.9c-0.8-32.7-2.6-67.2-4.5-101.3
		c-1.3-21.4-2.7-42.7-4.4-63c-4.4-52.5-10.3-99.2-18.1-128.8c-12.7-48.1-40.8-79.5-66.4-102.5l-18.5-15.9
		c-20.6,4.5-45.1,1.5-67.1-8.9c-23.9-11.3-32.1-19.5-36.3-16.4C6099,1201.5,6059.3,1331.9,6069.6,1475.3z"/>
	<path class="st17" d="M6271.1,1790.1c50.1-15.5,104.8-37.7,110.6-54.2c0.2-0.6,0.4-1.3,0.5-1.9c0-2.3-0.1-4.6-0.1-6.9
		c-2-8.4-9.5-17.5-10.4-38.2c-1-23.2-0.8-50.5-1.7-79.9c0-3.3-0.1-6.9-0.5-10.2l0-1.2c0-0.6,0-1.2,0-1.9l-202.7-258.2
		C6166.9,1337.6,6030.6,1621.3,6271.1,1790.1z"/>
	<path class="st19" d="M6267.5,1124.2c0,0-1.1,17.3-6.9,47c-45.4-14.7-66-55.7-72.9-73.1c0.7-2.9,1.4-5.9,2-9
		c6.4-1.4,18.4-3.9,31.3-6.6L6267.5,1124.2z"/>
	<path class="st16" d="M6273.6,1150.4c0,0-99-16.5-87.8-78c11.2-61.5,6-105,69.7-97.1c63.7,7.9,71.6,33.7,72.9,55.1
		C6329.7,1051.8,6299.6,1153.1,6273.6,1150.4z"/>
	<g class="st3">
		
			<rect x="6700.2" y="1443.5" transform="matrix(-0.951 -0.3092 0.3092 -0.951 12597.5586 5123.9409)" class="st20" width="9.2" height="240.4"/>
		
			<rect x="6420" y="1661.7" transform="matrix(-0.9998 -2.134937e-02 2.134937e-02 -0.9998 13055.0703 3477.7747)" class="st20" width="252.3" height="15.1"/>
	</g>
	<path class="st16" d="M6424.9,1686.1c0,0,81,21.4,111.4,19.1c30.4-2.2,55.7-16.7,59.5-24.2c3.8-7.5,11.9-20.9-8.8-18.5
		c-20.7,2.5-48.9,6.9-49.8,2.9c-0.9-4,16.9-3.6,16.9-3.6s5.4-7.8-1.4-8.1c-6.8-0.3-26.4-5.6-33.8-2c-7.3,3.7-14.1,17.2-19.4,16.6
		c-5.3-0.6-67.8-28.1-67.8-28.1L6424.9,1686.1z"/>
	<path class="st18" d="M6137.9,1256.7c0,0,9.6,326.7,81.3,363.8c35.4,18.3,195.3,68.7,243.2,77.3c0,0,12.9-8.3,14.4-47.7
		c0,0-164.2-81.9-184.8-118.7c-30.6-54.9,45.5-205.3,5.4-258.2C6257.3,1220.3,6183.1,1191.3,6137.9,1256.7z"/>
	<path class="st7" d="M6187.7,1098.1c0,0-1.1-21.1,11.9-33.2c0,0-4.5-21.2,3.8-24.6c8.4-3.5,10.1,14.3,13.9,11.5
		c3.8-2.8,20.9-16,28.2-35.6c7.3-19.5,74.3,4.1,82.2,7.6s32.9-9.4,37.8-19.8c0,0-14-11.2-20.2-19.5c-6.3-8.4-50.2-64.9-111.6-48.8
		c-61.4,16-69.7,45.3-66.3,70.4C6171,1031.3,6162.6,1089.7,6187.7,1098.1z"/>
	<g class="st3">
		<path class="st8" d="M6089.7,1807l-191.8-115.6c-15.9-9.8-24.9-27.6-23.5-46.2c2-23.7,2.9-47.6,2.9-71.8c0-45-3.2-88.9-10-131.7
			c-3.2-20,5.9-39.8,23.2-50.1l200.4-120.9c21.5-12.7,29.6-40.1,18.3-62.8l-94.3-192c-10.8-21.7-35.9-31.8-58.6-23.7l-202.6,73.5
			c-19.5,7.6-41.8,1-55-16.1c-55.7-72.1-122.9-135.1-198.9-186.7c-18.3-12.5-25.9-36.4-18.3-57.2l45-123.1
			c8.3-23.5-2-49.8-24.4-61.1l-190.8-93.3c-3.9-2-7.8-3.4-12-4.2c-19.5-4.2-40.3,4.6-50.8,22.5L5162,689.7l-21,34.9
			c-39.3-5.6-79.9-8.5-120.7-8.5c-55,0-109,5.1-160.8,14.9c-19.8,3.7-39.8-4.9-50.1-22.2l-97.2-161.5c-13.4-22-41.3-30.3-64.3-18.8
			l-146.8,72.1l-42,20.8c-23,11.2-34,38.1-25.2,62.1l61.3,169.3c7.3,19.5,1.5,41.5-14.7,54.2c-47.6,38.8-91.1,82.6-129.3,130.5
			c-3.7,3.9-6.6,7.8-9.8,12c-1,1.5-2.2,2.7-3.4,3.9c-13.4,14.4-34.2,19.1-52.8,12.2l-200.1-72.6c-2.2-1-4.6-1.5-6.8-2
			c-21.5-4.4-44,6.4-54,26.4l-93.3,190.1c-11.2,23-3.2,50.6,18.8,64l200.1,120.5c17.1,10,25.9,29.6,22.7,49.1
			c-6.6,43-10,87.2-10,132.4c0,23.9,1,47.6,2.9,71.1c1.5,19.1-7.8,37.4-24.2,47.2L3948.9,1808c-21.3,12.7-29.3,39.8-18.3,62.3
			l93.6,189.9c11.2,23,37.9,34,62.3,25.2l160.3-58.2c21.5-7.8,45.2,0,57.9,18.8c49.1,74.5,109.7,140.7,179.1,196.7
			c16.6,12.9,23,35.4,15.6,55.5l-65.5,180.3c-8.8,24.2,2.2,51.1,25.2,62.5l189.4,93.1c22.7,11.2,50.3,2.9,63-18.6l5.1-8.3
			l100.4-166.4c10.8-17.8,31-26.9,51.6-23.2h0.2c49.1,8.8,99.7,13.4,151.5,13.4c27.6,0,54.7-1.5,81.9-3.9c18.8-2,36.9,7.1,46.7,23.2
			l98.7,164c13.4,22.5,42,30.8,65.2,19.3l189.1-93.1c5.4-2.7,10-6.4,13.9-10.3c12.5-13.2,17.1-33,10.8-50.8l-49.4-135.1
			c-5.9-16.6-2.4-35.2,8.6-48.4c2.9-3.4,6.4-6.6,10.3-9.3c95.3-63.5,176.7-145.4,239.9-240.9c10.5-16.4,30.1-24.2,48.9-21
			c2.7,0.5,5.4,1.2,8.1,2.2l162,58.9c23.5,8.6,49.6-2,60.8-24.4l2.2-4.4l91.1-185.2C6120.3,1848.3,6112,1820.5,6089.7,1807z
			 M4575.6,1441.7c9.3-33,22-66.5,38.6-99.9c31.8-63.8,110.2-142.7,174.2-174.2c6.8-3.4,13.7-6.6,20.5-9.8
			c418.8-188.1,822.7,223.1,619.6,642.1c-26.6,54.7-85.5,119-142.9,158.8c-13.4,9-26.6,17.1-39.1,23c-58.4,28.3-116.6,45-173.2,51.3
			C4750.3,2069,4484.4,1772.1,4575.6,1441.7z"/>
	</g>
	<g class="st3">
		<path class="st21" d="M7565.8,2326.8L7523,2301c-3.5-2.2-5.6-6.2-5.2-10.3c0.4-5.3,0.7-10.6,0.7-16c0-10-0.7-19.8-2.2-29.4
			c-0.7-4.5,1.3-8.9,5.2-11.2l44.7-27c4.8-2.8,6.6-8.9,4.1-14l-21-42.9c-2.4-4.9-8-7.1-13.1-5.3l-45.2,16.4
			c-4.4,1.7-9.3,0.2-12.3-3.6c-12.4-16.1-27.4-30.2-44.4-41.7c-4.1-2.8-5.8-8.1-4.1-12.8l10-27.5c1.9-5.2-0.4-11.1-5.5-13.6
			l-42.6-20.8c-0.9-0.4-1.7-0.8-2.7-0.9c-4.4-0.9-9,1-11.3,5l-19.3,32l-4.7,7.8c-8.8-1.3-17.8-1.9-26.9-1.9
			c-12.3,0-24.3,1.1-35.9,3.3c-4.4,0.8-8.9-1.1-11.2-5l-21.7-36c-3-4.9-9.2-6.8-14.3-4.2l-32.8,16.1l-9.4,4.6
			c-5.1,2.5-7.6,8.5-5.6,13.9l13.7,37.8c1.6,4.4,0.3,9.3-3.3,12.1c-10.6,8.7-20.3,18.4-28.8,29.1c-0.8,0.9-1.5,1.7-2.2,2.7
			c-0.2,0.3-0.5,0.6-0.8,0.9c-3,3.2-7.6,4.3-11.8,2.7l-44.7-16.2c-0.5-0.2-1-0.3-1.5-0.4c-4.8-1-9.8,1.4-12.1,5.9L7084,2193
			c-2.5,5.1-0.7,11.3,4.2,14.3l44.7,26.9c3.8,2.2,5.8,6.6,5.1,11c-1.5,9.6-2.2,19.5-2.2,29.6c0,5.3,0.2,10.6,0.7,15.9
			c0.3,4.3-1.7,8.3-5.4,10.5l-43,26c-4.7,2.8-6.5,8.9-4.1,13.9l20.9,42.4c2.5,5.1,8.5,7.6,13.9,5.6l35.8-13c4.8-1.7,10.1,0,12.9,4.2
			c11,16.6,24.5,31.4,40,43.9c3.7,2.9,5.1,7.9,3.5,12.4l-14.6,40.2c-2,5.4,0.5,11.4,5.6,14l42.3,20.8c5.1,2.5,11.2,0.7,14.1-4.1
			l1.1-1.9l22.4-37.1c2.4-4,6.9-6,11.5-5.2h0.1c11,2,22.2,3,33.8,3c6.2,0,12.2-0.3,18.3-0.9c4.2-0.4,8.2,1.6,10.4,5.2l22,36.6
			c3,5,9.4,6.9,14.6,4.3l42.2-20.8c1.2-0.6,2.2-1.4,3.1-2.3c2.8-2.9,3.8-7.4,2.4-11.3l-11-30.2c-1.3-3.7-0.5-7.9,1.9-10.8
			c0.7-0.8,1.4-1.5,2.3-2.1c21.3-14.2,39.4-32.4,53.6-53.8c2.3-3.7,6.7-5.4,10.9-4.7c0.6,0.1,1.2,0.3,1.8,0.5l36.2,13.1
			c5.2,1.9,11.1-0.4,13.6-5.5l0.5-1l20.3-41.3C7572.6,2336,7570.8,2329.8,7565.8,2326.8z M7227.9,2245.3c2.1-7.4,4.9-14.8,8.6-22.3
			c7.1-14.2,24.6-31.8,38.9-38.9c1.5-0.8,3.1-1.5,4.6-2.2c93.5-42,183.6,49.8,138.3,143.3c-5.9,12.2-19.1,26.6-31.9,35.4
			c-3,2-5.9,3.8-8.7,5.1c-13,6.3-26,10-38.7,11.5C7266.8,2385.3,7207.5,2319,7227.9,2245.3z"/>
	</g>
	<g class="st3">
		<path class="st12" d="M7998.1,1489.9l-64.2-38.7c-5.3-3.3-8.3-9.2-7.8-15.4c0.7-7.9,1-15.9,1-24c0-15-1.1-29.7-3.3-44.1
			c-1.1-6.7,2-13.3,7.8-16.8l67-40.5c7.2-4.2,9.9-13.4,6.1-21l-31.5-64.2c-3.6-7.3-12-10.6-19.6-7.9l-67.7,24.6
			c-6.5,2.5-14,0.3-18.4-5.4c-18.6-24.1-41.1-45.2-66.5-62.4c-6.1-4.2-8.7-12.2-6.1-19.1l15-41.2c2.8-7.8-0.7-16.7-8.2-20.4
			l-63.8-31.2c-1.3-0.7-2.6-1.1-4-1.4c-6.5-1.4-13.5,1.6-17,7.5l-28.9,47.9l-7,11.7c-13.2-1.9-26.7-2.9-40.4-2.9
			c-18.4,0-36.4,1.7-53.8,5c-6.6,1.2-13.3-1.6-16.8-7.4l-32.5-54c-4.5-7.4-13.8-10.1-21.5-6.3l-49.1,24.1l-14.1,6.9
			c-7.7,3.8-11.4,12.7-8.4,20.8l20.5,56.6c2.5,6.5,0.5,13.9-4.9,18.1c-15.9,13-30.5,27.6-43.2,43.6c-1.2,1.3-2.2,2.6-3.3,4
			c-0.3,0.5-0.7,0.9-1.1,1.3c-4.5,4.8-11.4,6.4-17.7,4.1l-66.9-24.3c-0.7-0.3-1.6-0.5-2.3-0.7c-7.2-1.5-14.7,2.1-18.1,8.8
			l-31.2,63.6c-3.8,7.7-1.1,16.9,6.3,21.4l66.9,40.3c5.7,3.3,8.7,9.9,7.6,16.4c-2.2,14.4-3.4,29.2-3.4,44.3c0,8,0.3,15.9,1,23.8
			c0.5,6.4-2.6,12.5-8.1,15.8l-64.4,38.9c-7.1,4.2-9.8,13.3-6.1,20.8l31.3,63.5c3.8,7.7,12.7,11.4,20.8,8.4l53.6-19.5
			c7.2-2.6,15.1,0,19.4,6.3c16.4,24.9,36.7,47.1,59.9,65.8c5.6,4.3,7.7,11.8,5.2,18.6l-21.9,60.3c-2.9,8.1,0.7,17.1,8.4,20.9
			l63.3,31.1c7.6,3.8,16.8,1,21.1-6.2l1.7-2.8l33.6-55.7c3.6-6,10.4-9,17.2-7.8h0.1c16.4,2.9,33.3,4.5,50.7,4.5
			c9.2,0,18.3-0.5,27.4-1.3c6.3-0.7,12.3,2.4,15.6,7.8l33,54.8c4.5,7.5,14.1,10.3,21.8,6.5l63.3-31.1c1.8-0.9,3.4-2.1,4.7-3.4
			c4.2-4.4,5.7-11,3.6-17l-16.5-45.2c-2-5.6-0.8-11.8,2.9-16.2c1-1.1,2.1-2.2,3.4-3.1c31.9-21.2,59.1-48.6,80.3-80.6
			c3.5-5.5,10.1-8.1,16.3-7c0.9,0.2,1.8,0.4,2.7,0.7l54.2,19.7c7.8,2.9,16.6-0.7,20.3-8.2l0.7-1.5l30.5-61.9
			C8008.3,1503.7,8005.5,1494.4,7998.1,1489.9z M7491.6,1367.7c3.1-11,7.4-22.2,12.9-33.4c10.6-21.3,36.9-47.7,58.3-58.3
			c2.3-1.1,4.6-2.2,6.9-3.3c140.1-62.9,275.2,74.6,207.3,214.8c-8.9,18.3-28.6,39.8-47.8,53.1c-4.5,3-8.9,5.7-13.1,7.7
			c-19.5,9.5-39,15-57.9,17.2C7550.1,1577.5,7461.2,1478.2,7491.6,1367.7z"/>
	</g>
	<g class="st3">
		<path class="st12" d="M847.8,1480.1l-47.5-22c-3.9-1.9-6.5-5.8-6.6-10.2c-0.1-5.6-0.5-11.2-1.1-16.8c-1.1-10.5-3-20.6-5.7-30.4
			c-1.2-4.6,0.4-9.4,4.1-12.2l43.6-33.2c4.7-3.5,5.9-10.1,2.7-15.1l-26.8-42.3c-3-4.8-9.2-6.5-14.2-4l-45.3,22.2
			c-4.4,2.3-9.7,1.3-13.2-2.4c-14.8-15.4-32-28.3-51-38.4c-4.6-2.4-6.9-7.8-5.7-12.8l7.4-29.8c1.3-5.7-1.7-11.5-7.2-13.6l-46.7-16.9
			c-1-0.4-1.9-0.6-2.9-0.7c-4.7-0.5-9.3,2.1-11.3,6.5l-16.5,35.5l-4,8.7c-9.3-0.3-18.8,0-28.3,1.1c-12.8,1.4-25.2,3.9-37,7.5
			c-4.5,1.4-9.4-0.1-12.2-3.9l-26.7-35.1c-3.7-4.8-10.4-6-15.4-2.8l-32.3,20.5l-9.3,5.9c-5.1,3.2-6.9,9.7-4.3,15.1l18.5,37.8
			c2.2,4.4,1.4,9.6-2,13c-10.1,10.2-19.1,21.5-26.8,33.6c-0.8,1-1.3,2-2,3c-0.2,0.4-0.4,0.7-0.7,1c-2.8,3.7-7.5,5.3-12,4.2
			l-48.4-11.8c-0.5-0.2-1.1-0.2-1.6-0.3c-5.1-0.5-10.1,2.6-11.9,7.5l-16.9,46.6c-2,5.6,0.5,11.8,6,14.4l49.6,23
			c4.2,1.9,6.8,6.2,6.5,10.9c-0.4,10.2-0.1,20.5,1,31.1c0.6,5.6,1.4,11.1,2.5,16.5c0.8,4.4-0.9,8.9-4.4,11.6l-41.9,31.9
			c-4.6,3.5-5.8,10-2.7,15l26.6,41.8c3.2,5.1,9.7,6.9,15.1,4.3l35.8-17.6c4.8-2.4,10.5-1.1,13.9,2.9c13.3,16.1,29.1,30,46.6,41.2
			c4.2,2.6,6.2,7.7,5,12.5l-10.7,43.6c-1.4,5.8,1.8,11.8,7.4,13.9l46.4,16.9c5.6,2,11.8-0.6,14.2-5.9l1-2.1l19.2-41.2
			c2.1-4.4,6.5-7,11.4-6.7l0.1,0c11.6,0.8,23.5,0.6,35.6-0.7c6.4-0.7,12.7-1.7,18.9-3c4.3-0.9,8.8,0.7,11.4,4.2l27.1,35.6
			c3.7,4.9,10.6,6.1,15.7,2.8l41.6-26.4c1.2-0.8,2.2-1.7,3-2.7c2.6-3.4,3.1-8.1,1.2-12.1l-14.9-30.2c-1.8-3.7-1.5-8.1,0.8-11.5
			c0.6-0.9,1.3-1.7,2.2-2.4c20.6-17.2,37.4-38.3,49.7-62.1c2-4.1,6.4-6.4,10.8-6.1c0.6,0,1.3,0.1,1.9,0.3l39.2,9.6
			c5.7,1.4,11.5-1.7,13.5-7.2l0.4-1.1l16.5-45.4C855.9,1488.9,853.3,1482.6,847.8,1480.1z M486.3,1433.3c1.3-7.9,3.4-16,6.5-24.2
			c5.8-15.6,22-36,36.1-44.9c1.5-1,3-1.9,4.5-2.8c92.7-54.3,197,31.1,160.3,133.7c-4.8,13.4-16.9,29.8-29.2,40.5
			c-2.9,2.4-5.8,4.7-8.5,6.3c-12.9,8.1-26,13.4-39,16.3C542.8,1574.8,473.5,1512.4,486.3,1433.3z"/>
	</g>
	<path class="st16" d="M4896.3,2364.4c4,4.5,4.5,9.6,2.5,15c0,0,0,0.1,0,0.1c-3.6,10-15.6,21.2-29.5,32.3c-1.8,1.4-3.4,2.7-4.7,3.9
		c-0.4,0.3-0.7,0.6-1.1,1c-0.3,0.2-0.6,0.5-0.8,0.7c-13,11.9-8.1,14.7-31.4,38.9c-26.5,27.6-44.8,28.1-50,25.6
		c-4.4-2.1,4.5-16.8,14.4-33.3c0.5-0.8,1-1.6,1.4-2.4c1.3-2.2,2.6-4.4,3.9-6.6c11.6-19.8,8.6-29.1,5.9-58.6
		c-2.2-24-37.3-133.9-37.3-133.9l50.9-8.8c0,0,15.3,87.5,32.2,101c9,7.2,19.1,7.3,27.8,12.6c0.6,0.4,1.2,0.8,1.8,1.1
		C4887.3,2356.5,4892.3,2359.8,4896.3,2364.4z"/>
	<path class="st22" d="M4896.3,2364.4c4,4.5,4.5,9.6,2.5,15c0,0,0,0.1,0,0.1c-4.4,10-16.1,21.1-29.5,32.2c-1.8,1.5-3.3,2.8-4.7,4
		c-0.4,0.3-0.7,0.6-1.1,1c-0.3,0.2-0.6,0.5-0.8,0.7c-13,11.9-8.1,14.7-31.4,38.9c-26.5,27.6-44.8,28.1-50,25.6
		c-4.4-2.1,4.5-16.8,14.4-33.3c5.2-1.9,29.2-11.6,47.3-34.9c16-20.4,26.6-46.6,37.5-61.8c0.6,0.4,1.2,0.8,1.8,1.1
		C4887.3,2356.5,4892.3,2359.8,4896.3,2364.4z"/>
	<path class="st16" d="M4486.1,2332.6c-3.1,15.7-25.5,13.1-50.5,7c-25-6.1-19.1,1.2-54.7-2.8c-35.6-3.9-46.4-17.2-47.5-22.5
		c-1-4.7,16.6-6.4,35.5-8.5c2.4-0.3,4.8-0.6,7.1-0.9c21.3-2.7,36.9-16.4,56.2-27.7c18.3-10.7,45.7-54.3,45.7-54.3l48.8,3.9
		c0,0-25.6,38.9-35.5,55.8c-5.8,9.9-5.5,23.1-4.8,33.3C4486.8,2321.4,4487.2,2327.1,4486.1,2332.6z"/>
	<path class="st22" d="M4435.5,2339.6c-25-6.1-19.1,1.2-54.7-2.8c-35.6-3.9-46.4-17.2-47.5-22.5c-1-4.7,16.6-6.4,35.5-8.5l0.2,0.4
		c0,0,21.3,15.1,51,15.8c24.1,0.6,49.7-6.3,66.4-6.1c0.4,5.5,0.7,11.2-0.4,16.7C4482.9,2348.3,4460.5,2345.7,4435.5,2339.6z"/>
	<path class="st16" d="M4594.7,1615.6c0,0-11.6-28.5-24.4-29.7c-12.8-1.2-53.5-7.6-56.4-1.7c-2.9,5.8,0,26.8,8.7,34.3
		c8.7,7.6,62.8,19.8,62.8,19.8L4594.7,1615.6z"/>
	<path class="st23" d="M4673.1,2020.5l105.2,283.1c0,0,16.2,1.6,31.7-2.9c14.3-4.1,30.6-14.9,30.6-14.9s-26.1-271.9-73.9-328.4
		C4718.8,1900.8,4673.1,2020.5,4673.1,2020.5z"/>
	<path class="st22" d="M5089.2,1905.9c0,0-302.3-102.2-369.7-80.5c-67.4,21.7-269.8,424.5-269.8,424.5s4.6,6.1,17,10.8
		c11.6,4.3,39.7,4.1,39.7,4.1s182.7-156.6,204.4-202.3c21.7-45.7,30.4-89.2,52.2-84.8c21.7,4.3,280.6,106.6,339.3,45.7
		c58.7-60.9,43.4-140,43.4-140L5089.2,1905.9z"/>
	<path class="st24" d="M4904.5,1430.4c-4.8-10-10.2-27.7-12.9-59.2c0.4,3.1,5.8,42.9,21.2,65.5c62.9,41.3,183.4,179.1,181,205.2
		c0,0,42.4-72,43.2-72.4c0,0,78.3-99.6-14.5-156.6c-47.2-29-46.9-66.2-45-98.5c2-32.3-12.9-171.4-107.3-135c0,0-15.2-6.7-22-5.7
		c0,0,5.5,1.1,8.4,4c-11-0.6-26.6,0.2-39.7,7.6C4882.3,1204.8,4851.3,1381.4,4904.5,1430.4z"/>
	<path class="st16" d="M4916.5,1438.7c-0.3,0.1,30.4,16.1,53.4,9.8c21.7-5.9,35.9-34.1,35.6-34.1c-9.2-1.8-11.8-14.5-11.6-68.7
		l-4.2,0.8l-69.9,13.8c0,0,1.6,22,1.6,42.7C4921.5,1420.3,4920.5,1436.8,4916.5,1438.7z"/>
	<path class="st19" d="M4919.9,1360.3c0,0,1.6,22,1.6,42.7c39.1-1.1,59.8-36.8,68.2-56.5L4919.9,1360.3z"/>
	<path class="st24" d="M4996.9,1338.8c0,0,20.5-32.4,25.4-60c3.5-19.8-6.6-93-80.2-82.5c0,0-21.4,2.1-41.5,15.7
		c-16,10.8-39,34.1-13.3,98l6.7,21.6L4996.9,1338.8z"/>
	<path class="st16" d="M4906.8,1379.9c0,0,92.5,1.5,92.5-56.1c0.1-57.6,12-96.2-47-99.6s-70.5,18.6-75.2,37.8
		C4872.4,1281.2,4882.7,1378,4906.8,1379.9z"/>
	<path class="st24" d="M4910.2,1222.8c0,0,25.3,67.6,64.2,77.6c38.9,10,55.7-0.4,55.7-0.4s-29.8-23.7-36-65
		C4994.1,1234.9,4929.3,1190.6,4910.2,1222.8z"/>
	<path class="st24" d="M4916.5,1228.2c0,0-18.9,15.1-23.5,29.8c-4.6,14.7-6.7,44.9-15.5,43.8c0,0-19.1-45.9,2.4-71.9
		C4902.6,1202.4,4916.5,1228.2,4916.5,1228.2z"/>
	<path class="st10" d="M5122.4,1687.5c9.1-38.2-21.9-112.5-54.3-173.9c-29.4-55.7-59.9-100.9-62.6-99.2c-77.5,46-84.5,7.8-84.5,7.8
		s-70.4,9.4-90.3,43.7c-27.6,47.5-57.6,189.9-87.1,187.8c-13.5-1-149.8-52.2-149.8-52.2s-22.7,21.3-18.4,47.4
		c0,0,67.3,45.1,124.2,73.8c30.1,15.2,57.3,25.9,70.1,22.8c25.9-6.1,66.4-66.2,88.3-101.6c0-0.1,0.1-0.2,0.1-0.2
		c27.9,158.1-10,194.1,9.2,210.8c20.3,17.6,49.3-8.4,113.1,19.3c41.8,18.2,99.9,44.4,139,49c20.5,2.4,35.8-1.2,40.8-15
		C5174.6,1867.3,5105.1,1760.4,5122.4,1687.5z"/>
	<path class="st25" d="M4927.4,1344.9c0,0-1.7,7.3-19.9,6.2c0,0-15.3-0.9-14.8-9C4892.6,1342.1,4907.4,1336.4,4927.4,1344.9z"/>
	<path class="st11" d="M5160.1,1907.5c-5,13.8-20.3,17.4-40.8,15c-27.1-11.8-143.9-57.1-142.6-87.8c1.9-45.4,22.5-46.9,8-102.9
		c-11.6-45,96.4-128.7,113.6-146.9c32.4,61.4,33.3,64.4,24.2,102.6C5105.1,1760.4,5174.6,1867.3,5160.1,1907.5z"/>
	<path class="st11" d="M4857.9,1643.8c-21.9,35.4-62.4,95.5-88.3,101.6c-12.8,3-40-7.6-70.1-22.8c22,5.7,43.3,5.5,64,3.5
		c22.5-2.2,29-29.7,64.5-71C4851.1,1628.2,4856.8,1634.9,4857.9,1643.8z"/>
	<path class="st16" d="M4966.2,1730.7c0,0-19.6-15.2-38.1-11.6c-18.5,3.6-27.6,16.3-26.8,22.1c0.7,5.8,10.5,22.1,24.6,23.6
		c14.1,1.5,54.4-8.7,54.4-8.7L4966.2,1730.7z"/>
	<path class="st10" d="M5005.5,1414.3c0,0,75.4,4.6,101.5,41c36.7,51.2,100.5,260.4,83.1,308.2l-229.3-1c0,0-5.6-26,2.2-38.5
		c7.7-12.6,133.4-32.9,139.2-38.7c5.8-5.8-72.5-113.1-72.5-130.5S5005.5,1414.3,5005.5,1414.3z"/>
	<polygon class="st18" points="4896.1,1658.6 4618.8,1658.6 4668.9,1833.1 4946.5,1833.1 	"/>
	<rect x="4669.9" y="1826.3" class="st17" width="363" height="6.8"/>
	<path class="st17" d="M4779.3,1743c-1.8-6.1-8.2-11.1-14.3-11.1c-6.1,0-9.7,5-7.9,11.1c1.8,6.1,8.2,11.1,14.3,11.1
		C4777.5,1754.1,4781,1749.2,4779.3,1743z"/>
	<path class="st18" d="M3511.8,2152.2v74c0,15.3-12.5,27.8-27.8,27.8h-437.3c-15.3,0-27.8-12.5-27.8-27.8v-74
		c0-15.3,12.5-27.8,27.8-27.8H3484C3499.3,2124.4,3511.8,2136.9,3511.8,2152.2z"/>
	<path class="st17" d="M3511.8,2212.7v13.5c0,15.3-12.5,27.8-27.8,27.8h-437.3c-15.3,0-27.8-12.5-27.8-27.8v-14.6h484.9
		C3506.6,2211.6,3509.3,2211.9,3511.8,2212.7z"/>
	<g class="st3">
		<path class="st26" d="M3124.2,2253.9l-19.7,74.7c0,0,0,0,0,0l-82.1,310.8h-8.6l47.4-257.8c0-0.3,0.1-0.5,0.2-0.8l23.5-127.5
			L3124.2,2253.9z"/>
	</g>
	<path class="st27" d="M3124.2,2253.9l-19.7,74.7c0,0,0,0,0,0c-1.1,0.6-37,19.1-43.1,52.2l23.5-127.5L3124.2,2253.9z"/>
	<g class="st3">
		<path class="st26" d="M3511.8,2639.4h-8.6l-66.9-253.2c0,0,0,0,0,0l-15.2-57.6c0,0,0,0,0,0l-19.7-74.7l39.4-0.7l13.4,72.9l10,54.6
			c0,0.3,0.1,0.5,0.2,0.8L3511.8,2639.4z"/>
	</g>
	<path class="st28" d="M3378.5,2351.7c0,0-0.1,0-0.1-0.1C3378.2,2351.3,3378.2,2351.3,3378.5,2351.7z"/>
	<path class="st27" d="M3454.1,2326.1c-7.3,10.6-17.3,30.5-17.9,60l-15.2-57.6c0,0,0,0,0,0l-19.7-74.7l39.4-0.7L3454.1,2326.1z"/>
	<path class="st7" d="M2958.9,668c10.2-10.6,17.1-6.6,17.1-6.6s120,92.2,131.5,98.9c11.5,6.7,167.6,11.2,167.6,11.2
		s62.5-0.7,77.7,31.4c13.2,27.9,3.9,51.9-9.7,69.6c-16.2,21-43.8,29.8-69.3,22.3c-57.2-16.7-171-50.8-192.3-63.8
		c-47.4-29-133-144.8-133-144.8S2950.9,676.3,2958.9,668z"/>
	<g class="st3">
		<path class="st21" d="M3088.3,578.5l-59.9-36.1c-5-3.1-7.8-8.6-7.3-14.4c0.6-7.4,0.9-14.9,0.9-22.4c0-14-1-27.8-3.1-41.1
			c-1-6.3,1.8-12.4,7.3-15.7l62.6-37.8c6.7-4,9.2-12.5,5.7-19.6l-29.5-60c-3.4-6.8-11.2-9.9-18.3-7.4l-63.3,23
			c-6.1,2.4-13.1,0.3-17.2-5c-17.4-22.5-38.4-42.2-62.1-58.3c-5.7-3.9-8.1-11.4-5.7-17.9l14-38.5c2.6-7.3-0.6-15.6-7.6-19.1
			l-59.6-29.2c-1.2-0.6-2.4-1.1-3.7-1.3c-6.1-1.3-12.6,1.5-15.9,7l-27,44.7l-6.6,10.9c-12.3-1.8-25-2.7-37.7-2.7
			c-17.2,0-34,1.6-50.2,4.7c-6.2,1.1-12.4-1.5-15.7-6.9l-30.4-50.5c-4.2-6.9-12.9-9.5-20.1-5.9l-45.9,22.5l-13.1,6.5
			c-7.2,3.5-10.6,11.9-7.9,19.4l19.2,52.9c2.3,6.1,0.5,13-4.6,16.9c-14.9,12.1-28.5,25.8-40.4,40.8c-1.1,1.2-2.1,2.4-3.1,3.7
			c-0.3,0.5-0.7,0.8-1.1,1.2c-4.2,4.5-10.7,6-16.5,3.8l-62.5-22.7c-0.7-0.3-1.5-0.5-2.1-0.6c-6.7-1.4-13.7,2-16.9,8.2l-29.2,59.4
			c-3.5,7.2-1,15.8,5.9,20l62.5,37.6c5.3,3.1,8.1,9.2,7.1,15.3c-2.1,13.4-3.1,27.3-3.1,41.4c0,7.5,0.3,14.9,0.9,22.2
			c0.5,6-2.4,11.7-7.6,14.7l-60.2,36.3c-6.6,4-9.2,12.4-5.7,19.5l29.2,59.3c3.5,7.2,11.8,10.6,19.5,7.9l50.1-18.2
			c6.7-2.4,14.1,0,18.1,5.9c15.3,23.3,34.3,44,56,61.4c5.2,4,7.2,11.1,4.9,17.3l-20.5,56.3c-2.7,7.6,0.7,16,7.9,19.5l59.2,29.1
			c7.1,3.5,15.7,0.9,19.7-5.8l1.6-2.6l31.4-52c3.4-5.6,9.7-8.4,16.1-7.3h0.1c15.3,2.7,31.1,4.2,47.3,4.2c8.6,0,17.1-0.5,25.6-1.2
			c5.9-0.6,11.5,2.2,14.6,7.3l30.8,51.2c4.2,7,13.1,9.6,20.4,6l59.1-29.1c1.7-0.8,3.1-2,4.4-3.2c3.9-4.1,5.3-10.3,3.4-15.9
			l-15.4-42.2c-1.8-5.2-0.8-11,2.7-15.1c0.9-1.1,2-2.1,3.2-2.9c29.8-19.8,55.2-45.4,75-75.3c3.3-5.1,9.4-7.6,15.3-6.6
			c0.8,0.2,1.7,0.4,2.5,0.7l50.6,18.4c7.3,2.7,15.5-0.6,19-7.6l0.7-1.4l28.5-57.9C3097.8,591.4,3095.2,582.7,3088.3,578.5z
			 M2615.2,464.3c2.9-10.3,6.9-20.8,12.1-31.2c9.9-19.9,34.4-44.6,54.4-54.4c2.1-1.1,4.3-2.1,6.4-3.1
			c130.8-58.8,257,69.7,193.6,200.6c-8.3,17.1-26.7,37.2-44.7,49.6c-4.2,2.8-8.3,5.3-12.2,7.2c-18.2,8.9-36.4,14-54.1,16
			C2669.8,660.3,2586.7,567.5,2615.2,464.3z"/>
	</g>
	<path class="st29" d="M2826.3,698.2c0,0,0.2-44.3-6.8-57.2c-7-12.9-23-29-32.2-23.8c-9.1,5.2-11.9,48.3-9.1,56.1
		c2.8,7.7,23.5,36.7,23.5,36.7L2826.3,698.2z"/>
	<path class="st30" d="M3375.7,2124.4c9.9-8.5,4-55.8,4-55.8s-50.9-40.7-57.9-9.5c-7,31.2-48.3,45.2-71.9,49
		c-15.7,2.5-20.9,11-22.7,16.4H3375.7z"/>
	<path class="st7" d="M3381.4,2070.8c-47.1,7.3-64.3-3.9-64.3-3.9c0.6-46.4-13.7-151-33.3-271.1c-25.9-158.4-60.9-343.7-83.1-457.9
		c-12.7-65.7-21.2-107.9-21.2-107.9l38.5-0.8l192-3.8c0,0-14.4,212.5-10.4,317.4c0.9,25.1,2.9,44,6.4,52.4
		C3438.6,1674.8,3381.4,2070.8,3381.4,2070.8z"/>
	<path class="st30" d="M3399.5,1542.8c-26.1,48.8-91.4,174.5-115.7,252.9c-25.9-158.4-60.9-343.7-83.1-457.9
		c1.1-43.2,6.3-80.9,17.3-108.7l192-3.8C3409.9,1225.4,3395.5,1437.9,3399.5,1542.8z"/>
	<path class="st30" d="M3214,2124.4c9.9-8.5,4-55.8,4-55.8s-50.9-40.7-57.9-9.5c-7,31.2-48.3,45.2-71.9,49
		c-15.7,2.5-20.9,11-22.7,16.4H3214z"/>
	<path class="st7" d="M3096,1225.4c0,0,75.4,697.8,60.5,838.6c0,0,16.1,12.6,63.7,9.7c0,0,86.2-402,67.9-467.1
		c-12.7-45.2,37.8-364.7,37.8-364.7L3096,1225.4z"/>
	<path class="st29" d="M3281.6,726.3c0,0-95.9,47.9-143.5,26.1c0,0,20-25.9,42.4-36.6c-0.5-8.5-0.7-16.2-0.9-23
		c-0.4-22.7,0.7-35.5,0.7-35.5l41.4-30.1l28.1-20.4c-1.6,12.6-1.9,24.3-1.1,35C3252.4,697,3281.6,726.3,3281.6,726.3z"/>
	<path class="st31" d="M3248.6,641.8c0,0-22.4,44.6-69,50.9c-0.4-22.7,0.7-35.5,0.7-35.5l41.4-30.1
		C3239.8,634,3248.6,641.8,3248.6,641.8z"/>
	<path class="st29" d="M3169.7,654.4c0,0,85.8,30.6,104.1-23.2c18.2-53.8,41.6-86-12.5-107.8c-54-21.8-71.7-4.9-82.1,11.6
		C3168.7,551.4,3147.8,645.1,3169.7,654.4z"/>
	<path class="st15" d="M3416,1225.4c-13.4,28-310.9,26.8-325.6,7c-6-8-12.8-88.3-16.8-181.7c-2.2-51.7-3.4-107.5-3.2-157.1
		c0.4-81,5-145.9,16.4-150.9c63.8-27.7,103.2-45.3,186.5-42.7c25.7,0.8,48.9,15.6,60.1,38.7c20,41.4,48.4,114.8,50.6,201.4
		C3387.3,1073.7,3432.9,1190.1,3416,1225.4z"/>
	<path class="st7" d="M3166.6,838.6c0,0-9.7,139.6-93,212.1c-2.2-51.7-3.4-107.5-3.2-157.1C3095.3,860.3,3128.2,836.3,3166.6,838.6z
		"/>
	<path class="st15" d="M3207.7,703c0,0-91.5,0.6-120.2,27.2c-20.6,19.1-152.8,123.3-161.2,121.9c-8.4-1.4-93.5-171.3-93.5-171.3
		s-42,3.6-49,21.7c0,0,39.6,212.2,125,258.3c0,0,215.9-40.9,279.9-112.3C3221.7,811.7,3207.7,703,3207.7,703z"/>
	<path class="st7" d="M3173.5,493c0,0,5.1,51.3,20.5,65.3c15.4,14,11.3,33.3,13,36.1c1.7,2.8,17.6-5.4,20.4-0.7
		c6.5,10.8-3.6,18.8-10,21.4c-6.4,2.6,16.3,46.6,32.9,48.3c28.7,2.8,73.1-76.6,76.9-99.9c4.9-30.4-12.3-77.9-61.8-75.6
		C3187.6,491.5,3171.9,474.6,3173.5,493z"/>
	<g class="st3">
		<rect x="6704.8" y="268.5" class="st8" width="91.7" height="571.3"/>
		<rect x="6859.2" y="109.3" class="st8" width="91.7" height="730.6"/>
		<rect x="7023.2" y="406.7" class="st8" width="91.7" height="433.2"/>
		<path class="st8" d="M6945.9,0h-77.7c-4.4,0-8,3.6-8,8s3.6,8,8,8h77.7c4.4,0,8-3.6,8-8S6950.3,0,6945.9,0z"/>
		<path class="st8" d="M6885.9,45.3c4.4,0,8-3.6,8-8c0-4.4-3.6-8-8-8h-17.7c-4.4,0-8,3.6-8,8c0,4.4,3.6,8,8,8H6885.9z"/>
		<path class="st8" d="M7107.8,321.4h-77.7c-4.4,0-8,3.6-8,8l0,0c0,4.4,3.6,8,8,8h77.7c4.4,0,8-3.6,8-8l0,0
			C7115.9,325,7112.3,321.4,7107.8,321.4z"/>
		<path class="st8" d="M7030.2,366.7h17.7c4.4,0,8-3.6,8-8c0-4.4-3.6-8-8-8h-17.7c-4.4,0-8,3.6-8,8
			C7022.1,363.1,7025.8,366.7,7030.2,366.7z"/>
	</g>
</g>
<g id="Calque_3">
	<path class="st32" d="M8287.1,2636.6v10.3c0,1.5-1.2,2.7-2.7,2.7H-1.9c-1.5,0-2.7-1.2-2.7-2.7v-10.3c0-1.5,1.2-2.7,2.7-2.7h8286.3
		C8285.9,2633.9,8287.1,2635.1,8287.1,2636.6z"/>
	<path class="st33" d="M7727.5,2333.2c-174.2,172.6-477.4,259.7-760.9,303.3H983.2c-459.6-133.5-635-527.2-147.9-970.6
		c371.4-338.1,517.6-359.1,475.5-738C1288.5,727,1482.7,225.6,2492,313.5C3413.8,393.7,4507.2,631,5161.1,370
		c1265.6-505.1,1216.9,313.4,1941.5,625.5C7738.9,1269.5,8070.6,1993.4,7727.5,2333.2z"/>
	
		<rect x="5063.9" y="666.1" transform="matrix(-1 -1.224647e-16 1.224647e-16 -1 11056.9629 2893.3442)" class="st8" width="929.2" height="1561.2"/>
	<rect x="5034.8" y="666.1" class="st12" width="929.2" height="1561.2"/>
	<rect x="5098" y="753.3" class="st34" width="804.8" height="543.8"/>
	<rect x="5457" y="1807.4" class="st34" width="432" height="290.3"/>
	<path class="st21" d="M5131.2,1030.8c0,0,137.4-17.1,221.4,60.2c84,77.4,240.4,6.9,303.4,0c109.5-11.9,195.4,23.9,220.8,63.3v118.1
		h-745.6V1030.8z"/>
	<rect x="5237.7" y="840.7" class="st8" width="5.8" height="184.5"/>
	<rect x="5463.7" y="919.9" class="st8" width="5.8" height="184.5"/>
	<rect x="5696.9" y="878.1" class="st8" width="5.8" height="184.5"/>
	<path class="st8" d="M5307.8,869h-44.1c-2.6,0-4.8-2.2-4.8-4.8l0,0c0-2.6,2.2-4.8,4.8-4.8h44.1c2.6,0,4.8,2.2,4.8,4.8l0,0
		C5312.6,866.8,5310.4,869,5307.8,869z"/>
	<path class="st8" d="M5307.8,886.3h-44.1c-2.6,0-4.8-2.2-4.8-4.8l0,0c0-2.6,2.2-4.8,4.8-4.8h44.1c2.6,0,4.8,2.2,4.8,4.8l0,0
		C5312.6,884.1,5310.4,886.3,5307.8,886.3z"/>
	<path class="st8" d="M5530.4,963h-44.1c-2.6,0-4.8-2.2-4.8-4.8l0,0c0-2.6,2.2-4.8,4.8-4.8h44.1c2.6,0,4.8,2.2,4.8,4.8l0,0
		C5535.2,960.9,5533.1,963,5530.4,963z"/>
	<path class="st8" d="M5530.4,980h-44.1c-2.6,0-4.8-2.2-4.8-4.8l0,0c0-2.6,2.2-4.8,4.8-4.8h44.1c2.6,0,4.8,2.2,4.8,4.8l0,0
		C5535.2,977.8,5533.1,980,5530.4,980z"/>
	<path class="st8" d="M5767.4,893.5h-44.1c-2.6,0-4.8-2.2-4.8-4.8l0,0c0-2.6,2.2-4.8,4.8-4.8h44.1c2.6,0,4.8,2.2,4.8,4.8l0,0
		C5772.2,891.3,5770.1,893.5,5767.4,893.5z"/>
	<path class="st8" d="M5767.4,910.4h-44.1c-2.6,0-4.8-2.2-4.8-4.8l0,0c0-2.6,2.2-4.8,4.8-4.8h44.1c2.6,0,4.8,2.2,4.8,4.8l0,0
		C5772.2,908.2,5770.1,910.4,5767.4,910.4z"/>
	<path class="st34" d="M5743.9,1436.2c0-43.9,35.6-79.5,79.5-79.5c43.9,0,79.5,35.6,79.5,79.5s-35.6,79.5-79.5,79.5
		C5779.5,1515.6,5743.9,1480.1,5743.9,1436.2z"/>
	<path class="st20" d="M5896.1,1436.2c0,40.2-32.6,72.7-72.7,72.7c-19,0-36.2-7.2-49.2-19.1l49.2-53.6v-72.7
		C5863.6,1363.4,5896.1,1396,5896.1,1436.2z"/>
	<path class="st35" d="M5795.7,1423.4h-26.1c-1.2,0-2.2-1-2.2-2.2l0,0c0-1.2,1-2.2,2.2-2.2h26.1c1.2,0,2.2,1,2.2,2.2l0,0
		C5797.9,1422.4,5796.9,1423.4,5795.7,1423.4z"/>
	<circle class="st34" cx="5626.1" cy="1436.2" r="79.5"/>
	<path class="st36" d="M5626.1,1436.2l44.7,57.4c-12.3,9.6-27.8,15.3-44.7,15.3c-40.2,0-72.7-32.6-72.7-72.7
		c0-40.2,32.6-72.7,72.7-72.7c37.9,0,69.1,29,72.4,66.1L5626.1,1436.2z"/>
	<path class="st36" d="M5682.1,1454.2h-18.2c-1.2,0-2.2-1-2.2-2.2l0,0c0-1.2,1-2.2,2.2-2.2h18.2c1.2,0,2.2,1,2.2,2.2l0,0
		C5684.3,1453.2,5683.3,1454.2,5682.1,1454.2z"/>
	<path class="st34" d="M5743.9,1655.1c0-43.9,35.6-79.5,79.5-79.5c43.9,0,79.5,35.6,79.5,79.5c0,43.9-35.6,79.5-79.5,79.5
		C5779.5,1734.5,5743.9,1698.9,5743.9,1655.1z"/>
	<path class="st21" d="M5896.1,1655.1c0,40.2-32.6,72.7-72.7,72.7c-19,0-36.2-7.3-49.2-19.1l49.2-53.6v-72.7
		C5863.6,1582.3,5896.1,1614.9,5896.1,1655.1z"/>
	<path class="st21" d="M5795.7,1642.2h-26.1c-1.2,0-2.2-1-2.2-2.2l0,0c0-1.2,1-2.2,2.2-2.2h26.1c1.2,0,2.2,1,2.2,2.2l0,0
		C5797.9,1641.3,5796.9,1642.2,5795.7,1642.2z"/>
	<path class="st34" d="M5546.6,1655.1c0-43.9,35.6-79.5,79.5-79.5c43.9,0,79.5,35.6,79.5,79.5c0,43.9-35.6,79.5-79.5,79.5
		C5582.2,1734.5,5546.6,1698.9,5546.6,1655.1z"/>
	<path class="st20" d="M5698.5,1648.4c-3.4-37.1-34.5-66.1-72.4-66.1c-40.2,0-72.7,32.6-72.7,72.7c0,40.2,32.6,72.7,72.7,72.7
		c16.9,0,32.4-5.7,44.7-15.3l-44.7-57.4L5698.5,1648.4z"/>
	<path class="st35" d="M5682.1,1673h-18.2c-1.2,0-2.2-1-2.2-2.2l0,0c0-1.2,1-2.2,2.2-2.2h18.2c1.2,0,2.2,1,2.2,2.2l0,0
		C5684.3,1672.1,5683.3,1673,5682.1,1673z"/>
	<g>
		<polygon class="st8" points="5870.4,2077.4 5473.9,2077.4 5473.9,1843.2 5478.8,1843.2 5478.8,2072.5 5870.4,2072.5 		"/>
	</g>
	<g>
		<path class="st8" d="M5597.8,1992.7c-48.5-38.6-100.2,0-100.2,0v66.1h362.9V1888C5761.9,1890.5,5646.4,2031.3,5597.8,1992.7z"/>
		<path class="st8" d="M5501.8,1861h169.1c2.3,0,4.2-1.9,4.2-4.2s-1.9-4.2-4.2-4.2h-169.1c-2.3,0-4.2,1.9-4.2,4.2
			S5499.6,1861,5501.8,1861z"/>
		<path class="st8" d="M5501.8,1881.3h169.1c2.3,0,4.2-1.9,4.2-4.2c0-2.3-1.9-4.2-4.2-4.2h-169.1c-2.3,0-4.2,1.9-4.2,4.2
			C5497.7,1879.5,5499.6,1881.3,5501.8,1881.3z"/>
		<path class="st8" d="M5501.1,1900.5h112c1.9,0,3.4-1.5,3.4-3.4v-1.5c0-1.9-1.5-3.4-3.4-3.4h-112c-1.9,0-3.4,1.5-3.4,3.4v1.5
			C5497.7,1899,5499.2,1900.5,5501.1,1900.5z"/>
	</g>
	<rect x="3609.6" y="273.7" class="st12" width="1271.4" height="2067"/>
	<rect x="3732.5" y="389.4" class="st34" width="1023.6" height="1230"/>
	
		<ellipse transform="matrix(0.7071 -0.7071 0.7071 0.7071 -286.2388 3381.1799)" class="st34" cx="3938.3" cy="2036.1" rx="184.1" ry="184.1"/>
	<path class="st21" d="M4093.9,2036.1c0-85.9-69.7-155.6-155.6-155.6c-86,0-155.6,69.7-155.6,155.6c0,85.9,69.7,155.6,155.6,155.6
		c35.5,0,68.2-11.9,94.4-31.9l-94.4-123.7l145.4,55.5C4090.3,2074.4,4093.9,2055.7,4093.9,2036.1z"/>
	
		<ellipse transform="matrix(0.7071 -0.7071 0.7071 0.7071 -102.5286 3824.6956)" class="st34" cx="4565.6" cy="2036.1" rx="184.1" ry="184.1"/>
	<path class="st21" d="M4565.6,1880.5c-86,0-155.6,69.7-155.6,155.6c0,42.5,17,81.1,44.7,109.2l110.9-109.2l145.4,55.5
		c6.6-17.2,10.2-35.9,10.2-55.5C4721.2,1950.2,4651.5,1880.5,4565.6,1880.5z"/>
	<g>
		<path class="st36" d="M4542.8,1957.1h-66.2c-2.6,0-4.7,2.1-4.7,4.7l0,0c0,2.6,2.1,4.7,4.7,4.7h66.2c2.6,0,4.7-2.1,4.7-4.7l0,0
			C4547.5,1959.2,4545.4,1957.1,4542.8,1957.1z"/>
		<path class="st36" d="M4542.8,1972.1h-66.2c-2.6,0-4.7,2.1-4.7,4.7c0,2.6,2.1,4.7,4.7,4.7h66.2c2.6,0,4.7-2.1,4.7-4.7
			C4547.5,1974.2,4545.4,1972.1,4542.8,1972.1z"/>
		<path class="st36" d="M4503.9,1987.1h-27.4c-2.6,0-4.7,2.1-4.7,4.7s2.1,4.7,4.7,4.7h27.4c2.6,0,4.7-2.1,4.7-4.7
			S4506.5,1987.1,4503.9,1987.1z"/>
	</g>
	<g>
		<path class="st36" d="M3914.3,1957.1h-66.2c-2.6,0-4.7,2.1-4.7,4.7l0,0c0,2.6,2.1,4.7,4.7,4.7h66.2c2.6,0,4.7-2.1,4.7-4.7l0,0
			C3919,1959.2,3916.9,1957.1,3914.3,1957.1z"/>
		<path class="st36" d="M3914.3,1972.1h-66.2c-2.6,0-4.7,2.1-4.7,4.7c0,2.6,2.1,4.7,4.7,4.7h66.2c2.6,0,4.7-2.1,4.7-4.7
			C3919,1974.2,3916.9,1972.1,3914.3,1972.1z"/>
		<path class="st36" d="M3875.4,1987.1h-27.4c-2.6,0-4.7,2.1-4.7,4.7s2.1,4.7,4.7,4.7h27.4c2.6,0,4.7-2.1,4.7-4.7
			S3878,1987.1,3875.4,1987.1z"/>
	</g>
	<g>
		<rect x="3823.6" y="828.9" class="st8" width="108" height="725.4"/>
		<rect x="4000.6" y="626.7" class="st8" width="108" height="927.6"/>
		<rect x="4193.7" y="1004.4" class="st8" width="108" height="550"/>
		<rect x="4381.6" y="750.6" class="st8" width="108" height="803.7"/>
		<rect x="4570.4" y="1112" class="st8" width="108" height="442.3"/>
	</g>
	<g>
		<path class="st8" d="M4484.5,646H4393c-5.2,0-9.5,4.6-9.5,10.2s4.3,10.2,9.5,10.2h91.5c5.2,0,9.5-4.6,9.5-10.2
			S4489.7,646,4484.5,646z"/>
		<path class="st8" d="M4413.8,683.1H4393c-5.2,0-9.5,4.6-9.5,10.2s4.3,10.2,9.5,10.2h20.8c5.2,0,9.5-4.6,9.5-10.2
			S4419,683.1,4413.8,683.1z"/>
		<path class="st8" d="M4107.5,488H4016c-5.2,0-9.5,4.6-9.5,10.2s4.3,10.2,9.5,10.2h91.5c5.2,0,9.5-4.6,9.5-10.2
			S4112.7,488,4107.5,488z"/>
		<path class="st8" d="M4036.9,525.2H4016c-5.2,0-9.5,4.6-9.5,10.2l0,0c0,5.6,4.3,10.2,9.5,10.2h20.8c5.2,0,9.5-4.6,9.5-10.2l0,0
			C4046.3,529.7,4042.1,525.2,4036.9,525.2z"/>
		<path class="st8" d="M4293.4,896.1h-91.5c-5.2,0-9.5,4.6-9.5,10.2s4.3,10.2,9.5,10.2h91.5c5.2,0,9.5-4.6,9.5-10.2
			S4298.6,896.1,4293.4,896.1z"/>
		<path class="st8" d="M4222.8,933.2h-20.8c-5.2,0-9.5,4.6-9.5,10.2l0,0c0,5.6,4.3,10.2,9.5,10.2h20.8c5.2,0,9.5-4.6,9.5-10.2l0,0
			C4232.2,937.8,4228,933.2,4222.8,933.2z"/>
		<path class="st8" d="M4670.2,1004.4h-91.5c-5.2,0-9.5,4.6-9.5,10.2c0,5.6,4.3,10.2,9.5,10.2h91.5c5.2,0,9.5-4.6,9.5-10.2
			C4679.6,1009,4675.4,1004.4,4670.2,1004.4z"/>
		<path class="st8" d="M4599.5,1041.5h-20.8c-5.2,0-9.5,4.6-9.5,10.2c0,5.6,4.3,10.2,9.5,10.2h20.8c5.2,0,9.5-4.6,9.5-10.2
			C4609,1046.1,4604.7,1041.5,4599.5,1041.5z"/>
	</g>
	<rect x="2508.9" y="1150.2" class="st8" width="929.2" height="523.1"/>
	<rect x="2539.1" y="1150.2" class="st12" width="929.2" height="523.1"/>
	
		<ellipse transform="matrix(0.7071 -0.7071 0.7071 0.7071 -171.7936 2385.1309)" class="st34" cx="2793.2" cy="1399.9" rx="168" ry="168"/>
	<g>
		<path class="st34" d="M3363.8,1306.1h-278.3c-10.1,0-18.3,8.3-18.3,18.3l0,0c0,10.1,8.3,18.3,18.3,18.3h278.3
			c10.1,0,18.3-8.3,18.3-18.3l0,0C3382.2,1314.3,3373.9,1306.1,3363.8,1306.1z"/>
		<path class="st34" d="M3363.8,1381.6h-278.3c-10.1,0-18.3,8.3-18.3,18.3l0,0c0,10.1,8.3,18.3,18.3,18.3h278.3
			c10.1,0,18.3-8.3,18.3-18.3l0,0C3382.2,1389.9,3373.9,1381.6,3363.8,1381.6z"/>
		<path class="st34" d="M3363.8,1457.1h-278.3c-10.1,0-18.3,8.3-18.3,18.3c0,10.1,8.3,18.3,18.3,18.3h278.3
			c10.1,0,18.3-8.3,18.3-18.3C3382.2,1465.4,3373.9,1457.1,3363.8,1457.1z"/>
	</g>
	<path class="st8" d="M2639.4,1397.5h153.8v-153.8C2708.3,1243.7,2639.4,1312.5,2639.4,1397.5z"/>
	<path class="st21" d="M2947,1402.4h-153.8h0h-153.8c0,85,68.9,153.8,153.8,153.8l0,0c0,0,0,0,0,0c0,0,0,0,0,0l0,0
		C2878.2,1556.3,2947,1487.4,2947,1402.4z"/>
	<g>
		<path class="st33" d="M2766.6,1318.4h-83.5c-4.8,0-8.6,3.9-8.6,8.6c0,4.7,3.9,8.6,8.6,8.6h83.5c4.8,0,8.6-3.9,8.6-8.6
			C2775.3,1322.3,2771.4,1318.4,2766.6,1318.4z"/>
		<path class="st33" d="M2702.2,1349.8h-19c-4.8,0-8.6,3.9-8.6,8.6s3.9,8.6,8.6,8.6h19c4.7,0,8.6-3.9,8.6-8.6
			S2706.9,1349.8,2702.2,1349.8z"/>
	</g>
	<g>
		<path class="st36" d="M2890.6,1440.1h-83.5c-4.7,0-8.6,3.9-8.6,8.6c0,4.7,3.9,8.6,8.6,8.6h83.5c4.7,0,8.6-3.9,8.6-8.6
			C2899.2,1443.9,2895.3,1440.1,2890.6,1440.1z"/>
		<path class="st36" d="M2826.1,1471.5h-19c-4.7,0-8.6,3.9-8.6,8.6l0,0c0,4.7,3.9,8.6,8.6,8.6h19c4.8,0,8.6-3.9,8.6-8.6l0,0
			C2834.8,1475.4,2830.9,1471.5,2826.1,1471.5z"/>
	</g>
	<path class="st8" d="M2443.4,1767v535h929.2v-535H2443.4z"/>
	<path class="st12" d="M2473.6,1767v535h929.2v-535H2473.6z"/>
	<circle class="st34" cx="2727.8" cy="2018" r="168"/>
	<g>
		<path class="st34" d="M3020,1960.8h278.3c10.1,0,18.3-8.3,18.3-18.3s-8.3-18.3-18.3-18.3H3020c-10.1,0-18.3,8.3-18.3,18.3
			S3010,1960.8,3020,1960.8z"/>
		<path class="st34" d="M3298.4,1999.6H3020c-10.1,0-18.3,8.3-18.3,18.3c0,10.1,8.3,18.3,18.3,18.3h278.3c10.1,0,18.3-8.3,18.3-18.3
			C3316.7,2007.9,3308.5,1999.6,3298.4,1999.6z"/>
		<path class="st34" d="M3298.4,2075.1H3020c-10.1,0-18.3,8.3-18.3,18.3l0,0c0,10.1,8.3,18.3,18.3,18.3h278.3
			c10.1,0,18.3-8.3,18.3-18.3l0,0C3316.7,2083.4,3308.5,2075.1,3298.4,2075.1z"/>
	</g>
	<path class="st21" d="M2727.8,2020.7l-153.8-2c0,0.6,0,1.3,0,2c0,85,68.9,153.8,153.8,153.8c30.4,0,58.7-8.8,82.5-24L2727.8,2020.7
		z"/>
	<g>
		<path class="st36" d="M2733.4,2069.1h-83.5c-4.8,0-8.6,3.9-8.6,8.6v0c0,4.7,3.9,8.6,8.6,8.6h83.5c4.7,0,8.6-3.9,8.6-8.6v0
			C2742.1,2073,2738.2,2069.1,2733.4,2069.1z"/>
		<path class="st36" d="M2669,2100.6h-19c-4.8,0-8.6,3.9-8.6,8.6s3.9,8.6,8.6,8.6h19c4.8,0,8.6-3.9,8.6-8.6
			S2673.7,2100.6,2669,2100.6z"/>
	</g>
	<rect x="2443.4" y="579.7" class="st8" width="929.2" height="484.8"/>
	<rect x="2473.6" y="579.7" class="st12" width="929.2" height="484.8"/>
	
		<ellipse transform="matrix(0.7071 -0.7071 0.7071 0.7071 212.6044 2171.6846)" class="st34" cx="2727.8" cy="829.2" rx="168" ry="168"/>
	<path class="st8" d="M2727.8,675.4c-85,0-153.8,68.9-153.8,153.8c0,58.2,32.3,108.8,80,135c24.6-45.6,73.8-135,73.8-135l72.8,135.5
		c48.2-26,81-76.9,81-135.5C2881.6,744.3,2812.7,675.4,2727.8,675.4z"/>
	<g>
		<path class="st34" d="M3298.4,735.4H3020c-10.1,0-18.3,8.3-18.3,18.3v0c0,10.1,8.3,18.3,18.3,18.3h278.3
			c10.1,0,18.3-8.3,18.3-18.3v0C3316.7,743.6,3308.5,735.4,3298.4,735.4z"/>
		<path class="st34" d="M3298.4,810.9H3020c-10.1,0-18.3,8.3-18.3,18.3c0,10.1,8.3,18.3,18.3,18.3h278.3c10.1,0,18.3-8.3,18.3-18.3
			C3316.7,819.1,3308.5,810.9,3298.4,810.9z"/>
		<path class="st34" d="M3298.4,886.4H3020c-10.1,0-18.3,8.3-18.3,18.3c0,10.1,8.3,18.3,18.3,18.3h278.3c10.1,0,18.3-8.3,18.3-18.3
			C3316.7,894.6,3308.5,886.4,3298.4,886.4z"/>
	</g>
	<g>
		<path class="st33" d="M2733.4,755.7h-83.5c-4.7,0-8.6,3.9-8.6,8.6c0,4.7,3.9,8.6,8.6,8.6h83.5c4.7,0,8.6-3.9,8.6-8.6
			C2742.1,759.6,2738.2,755.7,2733.4,755.7z"/>
		<path class="st33" d="M2669,787.2h-19c-4.7,0-8.6,3.9-8.6,8.6l0,0c0,4.8,3.9,8.6,8.6,8.6h19c4.8,0,8.6-3.9,8.6-8.6l0,0
			C2677.6,791.1,2673.7,787.2,2669,787.2z"/>
	</g>
	<path class="st36" d="M3618.4,1416.9c0,0,108.4,111.9,113.6,154.1c5.2,42.2-51.6,108.2-51.6,108.2L3618.4,1416.9z"/>
	<path class="st37" d="M3572,2577.7c0,0-3.7,59.5-15.2,60.3c-1.5,0.1-58.4,0.1-58.4,0.1l-72.6-0.4c0,0,0.5-17.5,21.7-21.2
		c21.2-3.7,56.7-18.6,69.6-46.6C3530.7,2540.4,3572,2577.7,3572,2577.7z"/>
	<path class="st38" d="M3733.6,2577.7c0,0-3.7,59.5-15.2,60.3c-1.5,0.1-58.4,0.1-58.4,0.1l-72.8-0.3c0,0,0.7-17.6,21.9-21.3
		c21.2-3.7,56.7-18.6,69.6-46.6C3692.3,2540.4,3733.6,2577.7,3733.6,2577.7z"/>
	<path class="st37" d="M3491.7,1939.8c0,0,19,121.4,89.8,336.8c70.8,215.4,80.4,308.7,80.4,308.7s19.1,2.8,39.4,2.8
		c12.8,0,36.6-4.9,36.6-4.9s0.6-235.5-32-343.8c-32.6-108.3-7-390.6-7-390.6L3491.7,1939.8z"/>
	<path class="st39" d="M3454.7,1855.5c0,0-2.7,182.9,29,407.5c31.6,224.6,20.9,319.9,20.9,319.9s26.1,4.7,35.2,5
		c9.8,0.3,40.6-2.5,40.6-2.5s45.3-224.6,32.3-337c-13-112.4,62-385.7,62-385.7L3454.7,1855.5z"/>
	<path class="st40" d="M3601.4,1427.5l-35.7,26.5l-51.7-10.9c0.7-4.7,4.1-24.2,7.2-41.9c0.2-1,0.4-2.1,0.6-3.1c2.7-15,5-28,5-28
		l48.3-24l18-9c0,0.3-1.4,16.7-1.6,19.1C3588,1398.6,3601.4,1427.5,3601.4,1427.5z"/>
	<path class="st36" d="M3517.6,1414.1c1.1-0.5,70.3-20.9,77.8-18.4c7.5,2.5,12,17,12,17l-113.1,25.6
		C3494.3,1438.3,3503.2,1420.2,3517.6,1414.1z"/>
	<path class="st21" d="M3703.8,1878.1c-11.7,53.5-206.8,59.8-257.1,11.3c-5.7-5.5-6-31.3-3.8-66c4.2-67.8,17.8-169.8,18.3-221.9
		c0.3-25.2,3.7-50.9,8.3-74.3c9.8-49.8,24.7-88.9,24.7-88.9s95.3-30.8,113.1-25.6C3693.3,1438,3715.5,1824.6,3703.8,1878.1z"/>
	<path class="st36" d="M3442.9,1823.4c4.2-67.8,17.8-169.8,18.3-221.9c0.3-25.2,3.7-50.9,8.3-74.3l57.3-10.1
		C3526.9,1517.1,3582.9,1746,3442.9,1823.4z"/>
	<path class="st40" d="M3474,1728.9c0,0,3.9,9.3-4.3,15.6c-8.2,6.3-13.5,16.4-11.6,23.8c1.9,7.4,19.9,19.5,26.1,17.6
		c6.2-2,18.9-11.7,17.6-15.6c-1.4-3.9,8.5-34.4-6.7-46.1C3479.8,1712.4,3474,1728.9,3474,1728.9z"/>
	<path class="st21" d="M3538,1424.6c0,0-55.9,10.5-100.4,76.1c-44.5,65.6-73.8,114.4-65.6,138.1c8.2,23.7,83,105.7,95.9,105.7
		c12.9,0,33.7-9.4,34.9-30.5c0,0-52.7-78.9-42.3-90.7c4.4-5.1,68.4-56.9,77.5-33.5C3553,1628.5,3538,1424.6,3538,1424.6z"/>
	<path class="st41" d="M3587.8,1356.9c-10.6,20.3-50.1,37.8-66.5,44.3c0.2-1,0.4-2.1,0.6-3.1c2.7-15,5-28,5-28l48.3-24
		C3585.7,1345.9,3592.2,1348.6,3587.8,1356.9z"/>
	<path class="st40" d="M3511.2,1371.2c0,0,71.4,22.3,84.6-22.4c13.2-44.7,31.3-71.9-13.8-88c-45-16.1-59-1.7-67,12.2
		C3507,1286.7,3493,1364.2,3511.2,1371.2z"/>
	<path class="st38" d="M3517.9,1268.6c0,0,4.6,52,15.3,49.8c10.8-2.3,20.5-3.9,18.9,11.7c-1.6,15.7-16.5,33.8,16.7,36.6
		c33.1,2.8,80.8-82.7,71.7-98.9C3614.2,1221,3479.9,1211.6,3517.9,1268.6z"/>
	<polygon class="st40" points="2231.9,2477.2 2253.6,2568.8 2286.2,2568.6 2287.4,2477.2 	"/>
	<polygon class="st40" points="2505.9,2481.1 2567.7,2568.8 2591.8,2537.8 2554.6,2469 	"/>
	<path class="st37" d="M2345,1273.7c-11.2-6.4-24.7-7.1-34.1-6.5c2.4-2.5,7.2-3.4,7.2-3.4c-5.8-0.9-18.9,4.9-18.9,4.9
		c-81.3-31.3-94.1,88.4-92.4,116.2c1.7,27.8-27.3,36.9-69.6,58.8c-80.7,41.8-87.8,97.8-87.8,97.8c0.6,0.4,1.3,0.8,2,1.3
		c4-6.8,12.2-19.5,19.2-21.4c-0.3,0.6-8.2,17.5-11.2,27.2c23.8,18.1,68.3,58.2,99.4,86.7c-0.1-5.6,0.1-13.5,2.1-17.6l3.8,23.1
		c16.6,15.3,28.1,26,28.1,26c-2.1-22.5,101.6-141.1,155.7-176.6c13.2-19.4,17.9-53.6,18.2-56.3c-2.3,27.2-6.9,42.4-11.1,51
		C2401.5,1442.6,2374.8,1290.6,2345,1273.7z"/>
	<path class="st40" d="M2345.3,1491.9c0.3,0.1-26.1,13.8-46,8.4c-18.7-5.1-30.9-29.3-30.6-29.4c7.9-1.6,10.2-12.4,10-59.1l3.6,0.7
		l60.1,11.9c0,0-1.4,18.9-1.4,36.7C2341,1476.1,2341.9,1490.3,2345.3,1491.9z"/>
	<path class="st42" d="M2277.3,1293.3c0,0,29.7-31.6,66.9-1.6C2344.2,1291.7,2322.6,1287.9,2277.3,1293.3z"/>
	<path class="st43" d="M2342.4,1424.4c0,0-1.4,18.9-1.4,36.7c-33.6-0.9-51.4-31.6-58.7-48.6L2342.4,1424.4z"/>
	<path class="st38" d="M2276.1,1405.9c0,0-17.6-27.9-21.9-51.7c-3-17,5.6-80,69-71c0,0,18.4,1.8,35.7,13.5
		c13.8,9.3,33.6,29.3,11.4,84.3l-5.8,18.6L2276.1,1405.9z"/>
	<path class="st12" d="M2582,2513.8l-31.9,1l-34.5,1.1c0,0-79.7-88.7-124.3-230.9c-1-3.3-2.1-6.6-3.3-10
		c-24.5-71.3-75.2-160.8-101.9-241.8c-4.3-12.9-8.1-25.1-11.5-36.5c-1.1-3.7-2.2-7.3-3.2-10.9c-19.7-68.4-25.4-113.3-30.6-161.3
		l192.9,1.5C2433.7,1825.9,2464.9,2153.6,2582,2513.8z"/>
	<path class="st44" d="M2406.7,1715c-0.5,91.8,13.5,131.2,13.5,131.2s-82.6,42-180.8,11.1c-1.2-0.4-81.3-18.7-81.3-18.7
		c1.6-3.7,16.3-65.6,17.9-69c20.7-44.5,36.5-64,38.9-77.7c4.6-25.5,4.7-52,2.4-76.9c-6-66-23.8-120.8-23.8-120.8
		c26.8-6.1,52.5-16.5,80.3-26.9c6.4,8,25.3,16,42.3,15.7c19.6-0.4,25.7-8.7,24.9-18c20.8,11.6,37.4,22.6,37.4,22.6
		c17.7,30.8,53.6,60.6,56.2,107.8C2435.3,1607,2406.8,1712.4,2406.7,1715z"/>
	<path class="st45" d="M2240.8,1725.3c-8.4,11.9-24.6,84.5-64.8,93.6c20.7-51.7,36.5-74.4,38.9-90.3c4.6-29.7,4.7-60.4,2.4-89.3
		c13.5-23.6,23.5-39.8,23.5-39.8c1.1-3.8,21.4-66.7,27.9-10.5C2275.2,1645.2,2250.2,1711.9,2240.8,1725.3z"/>
	<path class="st40" d="M2353.7,1441.2c0,0-79.6,1.3-79.6-48.3c-0.1-49.6-10.4-82.8,40.4-85.7c50.8-2.9,60.7,16,64.7,32.5
		C2383.3,1356.3,2374.4,1439.6,2353.7,1441.2z"/>
	<path class="st38" d="M2376.9,1312.2c-12.3-14.9-21.6-11.6-26.8-7.2c-17.2-25.7-71.6,11.5-71.6,11.5c-5.3,35.6-31,55.9-31,55.9
		s14.5,9,47.9,0.4c26.3-6.8,45.4-44.2,52.4-59.9c4.7,4.2,14.7,13.9,17.7,23.4c4,12.6,5.8,38.6,13.3,37.7
		C2378.9,1374.1,2395.3,1334.6,2376.9,1312.2z"/>
	<path class="st40" d="M2252.5,2563.7c0,0,2.6,18.1-4.1,37.5c0,0-5.3,24.3,18.6,24.7c23.9,0.5,29.8-1.8,27.1-16.7
		c-2.7-14.9-7.9-40.7-7.9-40.7L2252.5,2563.7z"/>
	<path class="st46" d="M2296.3,2637.9C2296.3,2637.9,2296.3,2637.9,2296.3,2637.9l-49.6,0.1c-0.1,0-0.1-0.1-0.1-0.1
		c-2.7-12.7,1.7-36.6,1.7-36.6c27.1,25.9,44-0.7,44-0.7C2296.8,2611.7,2296.3,2637.9,2296.3,2637.9z"/>
	<path class="st40" d="M2649.5,2612.8c0,0-44.1-50.1-57.6-75l-32.8,16.8l73.3,68.8l17.2-2.3L2649.5,2612.8z"/>
	<path class="st46" d="M2676.5,2637.8h-61.2c-5.4-4.9-10.5-14.6-16.8-27.5c-3.6-7.4-11.7-11.4-20-13.6v41.1h-12.7l-11.7-43.7
		c-7.8-14.6-1.9-28.1,3.5-39.6c6.4,0,24.9,4.6,57.5,42c10.7,12.3,22.5,16.7,34.3,16.3c0.2,0.1,0.3,0.2,0.5,0.3
		C2668.5,2621.6,2674.6,2632,2676.5,2637.8z"/>
	<path class="st42" d="M2673.6,1523.5c0,0-52.2,29.2-70.9,37.6c-6.6,3-18.7,8.6-30.9,14.3c-7.4,3.5-14.9,7-21.4,10
		c-11,5.2-24,2.3-31.9-6.9c-28.3-33-101.5-104.6-177.1-113.6l-0.3-0.1c0,0,0,0,0,0.1c0,0-0.1,0-0.1,0l0.4,0.8
		c4.2,10.6,45.7,114.1,47,136c1.4,23,5.4,376.4,5.4,376.4s-2.7,16.2,28.4,9.5c31.1-6.8,39.3-13.5,39.3-13.5s-29.8-218-21.7-293.8
		c1.6-14.9,0.2-31.6-3.2-48.9c46,27.9,100.3,40.3,100.3,40.3s20.2-8.8,51.7-28.3c13.2-8.2,28.5-21.3,43.6-35.1
		c18.2-16.7,49.6-57,49.6-57L2673.6,1523.5z"/>
	<path class="st44" d="M2550.2,2514.7l-34.5,1.1c0,0-79.7-88.7-124.3-230.9c-1-3.3-2.1-6.6-3.3-10
		c-24.5-71.3-75.2-160.8-101.9-241.8c-4.3-12.9-8.1-25.1-11.5-36.5c-1.1-3.7-2.2-7.3-3.2-10.9l28.4-21.6c0,0,85.3,138.1,111.7,268.1
		C2434.5,2345.1,2526.4,2481,2550.2,2514.7z"/>
	<path class="st12" d="M2302.8,2244.3c0.5,63.2-2.7,208.5-10.9,268.7h-30.5c-16.9,0-25.3-0.2-25.3-0.2
		c-20.7-104.6-35.3-191.2-46-265.7c-8.8-61.2-16.6-113.7-22.6-158.9c-6-45.5-10.2-83.5-11.7-115.7c-0.2-5.1-0.4-10-0.5-14.8
		c-0.1-4.8-0.1-9.5-0.1-14l166.7-16.2C2319.7,2038.2,2302.6,2207.6,2302.8,2244.3z"/>
	<path class="st44" d="M2261.4,2513c-16.9,0-25.3-0.2-25.3-0.2c-20.7-104.6-35.3-191.2-46-265.7c-8.8-61.2-16.6-113.7-22.6-158.9
		c-6-45.5-10.2-83.5-11.7-115.7l61.2,36c0,0-39,13.8-24.1,118C2207.6,2230.8,2240.6,2498.2,2261.4,2513z"/>
	<path class="st42" d="M2269.2,1971.4c0,0-11.7,42.4-52.4,37c-40.6-5.4-98.4-29.8-98.4-29.8s17.4-54.9,38.9-126.9
		c26.1-87.2,58.5-199.7,73.7-270.7c4.3-19.9,7.2-36.5,8.3-48.4l34.4-65.4c0,0,49.6,112.8,52.3,141.3
		C2328.8,1637,2269.2,1971.4,2269.2,1971.4z"/>
	<path class="st40" d="M2414.3,1640.3c-19.6,2.6-27,13-29.5,27c-1.3,7.6-5.2,15-8.5,20.3c-19.5,1-65.9,3.6-104.8,6l-3.2,51.1
		c32-4,71.3-12.1,116.6-27.6c3.5-0.6,7.8-2.8,13.3-7.2c28.1-23,44-61.5,44-67C2442.3,1637.4,2433.9,1637.7,2414.3,1640.3z"/>
	<path class="st46" d="M2267.4,1668.1c-1.8,46-12.6,135.4-109.2,183.3c-0.3,0.1-0.5,0.3-0.8,0.4c26.1-87.2,58.5-199.7,73.7-270.7
		C2248.9,1607.6,2268.4,1642.8,2267.4,1668.1z"/>
	<path class="st42" d="M2273.8,1467.3c0,0-82.6,5.9-102.5,50.1c-19.9,44.2-26.2,191.4-0.9,234.7c0,0,34.8,9.9,96.4-1.6
		c0.8-0.1,1.5-0.3,2.3-0.4c0,0,19.6-48.1,2-57.6c0,0-51.9,2.7-46.5-14.4C2230,1660.9,2273.8,1467.3,2273.8,1467.3z"/>
	<g>
		<path class="st40" d="M2729.6,1488.8c-44.5-5.7-55.7,34.7-55.7,34.7l8.3,27.8c13.7,1.9,25.7-1.7,36.7-17.5
			c11-15.8,14.1-9.7,21.1-21.5C2749.6,1496.3,2734.7,1490.4,2729.6,1488.8z"/>
		<path class="st40" d="M2602.7,1561.1c-6.6,3-18.7,8.6-30.9,14.3c6.6,11.7,14.8,32.9,17,67.9c13.2-8.2,30.3-21.8,44.9-36.2
			c23.4-23,48.3-56,48.3-56l-8.3-27.8C2673.6,1523.5,2621.3,1552.7,2602.7,1561.1z"/>
	</g>
	<g>
		<path class="st47" d="M4960.7,1883.2c0,0-31.6,8.1-51.7,2.1c-20.1-6.1-54.7,3.9-60.2,11.2c-5.6,7.3-3.5,10.2,6.4,12.8
			c9.9,2.5,45.1,17.5,68.3,8.9c23.1-8.7,53.3-9,53.3-9L4960.7,1883.2z"/>
		<path class="st48" d="M5233.9,1608.6c0,0-35.5,252.4-94.3,275c-29,11.2-157.2,36.4-195.2,39c0,0-9.3-7.5-7-38.2
			c0,0,134.3-49.3,153.4-76.1c28.4-39.9-17.6-163.1,18-200.6C5144.5,1570.2,5204.5,1554.1,5233.9,1608.6z"/>
	</g>
	<path class="st49" d="M5229.4,2581.1v-55h86.6c2.3,0,4.3-1.9,4.3-4.3v-8.8c0-2.3-1.9-4.3-4.3-4.3h-86.6v-313.2c0-8.8-7.2-16-16-16
		h-17.1c-8.8,0-16,7.2-16,16v313.2h-86.6c-2.3,0-4.3,1.9-4.3,4.3v8.8c0,2.3,1.9,4.3,4.3,4.3h86.6v55c-62.7,4.7-112.9,27.3-127,56.5
		h303.1C5342.3,2608.4,5292.1,2585.8,5229.4,2581.1z"/>
	<path class="st37" d="M5222,2140.3c-10.4,17.6-22.3,34-34.7,49.6c-38.2,48.2-79.7,87.9-86.9,125.5c-1.4,7.5-3.7,15.5-6.7,24
		c-3,8.6-6.8,17.6-11.1,27c-16.2,35.2-40.4,74.6-64.6,110.4c-41.8,61.9-81.1,113.6-81.1,113.6l-72.1-3.1
		c2.9-7.2,34.3-92.7,76.4-197.3c17.1-42.4,35.2-87.6,52.8-131.1c2.3-5.8,4.7-11.6,7-17.3c5.4-13.3,10.6-26.4,15.8-39.2
		c39.5-98.1,70.9-176.3,70.9-176.3s157.8-59.8,174.2-21C5275.4,2037.2,5264.3,2068.5,5222,2140.3z"/>
	<path class="st37" d="M4934.6,2577.4c0,0-3.7,59.5-15.2,60.3c-1.5,0.1-58.4,0.1-58.4,0.1l-72.6-0.4c0,0,0.5-17.5,21.7-21.2
		c21.2-3.7,56.7-18.6,69.6-46.6C4893.2,2540.1,4934.6,2577.4,4934.6,2577.4z"/>
	<path class="st37" d="M5101.5,2407.5c0,0,50.1,32.2,45.3,42.7c-0.6,1.4-28.4,51-28.4,51l-35.7,63.1c0,0-15-8.9-7.9-29.3
		c7.1-20.3,11.4-58.6-6.8-83.5C5048.8,2425.4,5101.5,2407.5,5101.5,2407.5z"/>
	<path class="st39" d="M5033.7,1997.9c0,0-198.1,123.4-220.2,206.3c-22.1,82.9,263.5,259.9,263.5,259.9s31.3-27.6,36.9-47.9
		c0,0-129.1-154.7-157.1-189.4c-17.2-21.3,254.3-73.7,287.5-125.3c33.2-51.6,21.3-95,21.3-95L5033.7,1997.9z"/>
	<path class="st21" d="M5407.6,2156.4h-405.5c-8.1,0-14.7,6.6-14.7,14.7v81.1c0,8.1,6.6,14.7,14.7,14.7h405.5
		c8.1,0,14.7-6.6,14.7-14.7v-81.1C5422.3,2163,5415.7,2156.4,5407.6,2156.4z"/>
	<path class="st47" d="M5125.3,1565.4c-19.5,12.1-30.2,27.4-30.2,27.4c47.5,12.3,126.1-31.7,126.1-31.7s-30.6-20.5-41.9-65.6
		c-0.6-2.3-1.1-4.6-1.6-7c-1.5-7.6-2.4-15.8-2.6-24.7l-21.8,19.5l-36.3,32.5c0,0,0.8,13.5,5.4,36.7
		C5123.3,1556.4,5124.2,1560.8,5125.3,1565.4z"/>
	<path class="st50" d="M5271.3,1789.3c-6.8,91.4,4.6,230.5-3.1,254.5c-6.7,20.8-85,8.5-115.3,1.5c-11.2-2.6-24.8-6.2-38.8-10.6
		c-39.1-12.1-81.7-29.4-86.3-42.2c-0.2-0.5-0.3-1-0.4-1.5c-0.4-1.9-0.3-3.6,0.1-5.4c1.5-6.5,7.4-13.6,8.1-29.8
		c0.8-18.1,0.7-39.4,1.3-62.3c0-2.6,0.1-5.4,0.4-8l0-0.9c0-0.5,0-1,0-1.5c0.7-25.5,2-52.4,3.5-79c1-16.7,2.1-33.3,3.4-49.2
		c3.4-41,8-77.4,14.1-100.4c9.9-37.5,31.9-62,51.8-80l14.4-12.4c16.1,3.5,35.1,1.2,52.4-7c18.6-8.8,25.1-15.2,28.3-12.8
		C5248.4,1575.8,5279.3,1677.5,5271.3,1789.3z"/>
	<path class="st48" d="M5114.4,2035c-39.1-12.1-81.7-29.4-86.3-42.2c-0.2-0.5-0.3-1-0.4-1.5c0-1.8,0-3.6,0.1-5.4
		c1.5-6.5,7.4-13.6,8.1-29.8c0.8-18.1,0.7-39.4,1.3-62.3c0-2.6,0.1-5.4,0.4-8l0-0.9c0-0.5,0-1,0-1.5l147.7-67
		C5185.3,1816.5,5193.8,1935.5,5114.4,2035z"/>
	<path class="st43" d="M5117.2,1515.7c0,0,0.8,13.5,5.4,36.7c35.4-11.4,51.5-43.4,56.8-57c1.5-3.8,2.2-6.2,2.2-6.2s-1.4-0.3-3.7-0.8
		c-5-1.1-14.3-3-24.4-5.2L5117.2,1515.7z"/>
	<path class="st47" d="M5102.9,1515.4c0,0,77.8,8.8,82.5-39.7c4.7-48.5,17.9-80.1-31.5-87.7c-49.5-7.7-60.9,9.9-66.4,25.7
		C5081.9,1429.4,5082.8,1511.8,5102.9,1515.4z"/>
	<path class="st49" d="M5185,1479c0,0-4.9-64.4-75.7-71.1c-48.5-4.6-21.5-46.3-16.3-53c0,0,37.2,5.1,75.2,11.4
		C5248.2,1379.5,5192.9,1468.9,5185,1479z"/>
	<g>
		
			<rect x="4772.6" y="1764.7" transform="matrix(0.9511 -0.309 0.309 0.9511 -340.5312 1566.9545)" class="st48" width="7.2" height="187.5"/>
		
			<rect x="4801.6" y="1934.8" transform="matrix(0.9998 -2.135617e-02 2.135617e-02 0.9998 -40.3284 105.0864)" class="st48" width="196.7" height="11.8"/>
	</g>
	<g>
		<path class="st47" d="M4977,1922c0,0-30.5,11.6-51.2,7.8c-20.6-3.8-53.9,9.9-58.6,17.8c-4.7,7.9-2.4,10.6,7.8,12
			c10.2,1.4,46.8,12.5,68.8,1.3c22-11.2,52-14.8,52-14.8L4977,1922z"/>
		<path class="st50" d="M5218.3,1619c0,0-7.5,254.7-63.4,283.7c-27.6,14.3-152.3,53.5-189.7,60.3c0,0-10.1-6.5-11.2-37.2
			c0,0,128.1-63.8,144.1-92.6c23.8-42.8-35.5-160.1-4.2-201.3C5125.1,1590.6,5183,1568,5218.3,1619z"/>
	</g>
</g>
</svg>
