<?xml version="1.0" encoding="utf-8"?>
<!-- Generator: Adobe Illustrator 24.1.3, SVG Export Plug-In . SVG Version: 6.00 Build 0)  -->
<svg version="1.1" xmlns="http://www.w3.org/2000/svg" xmlns:xlink="http://www.w3.org/1999/xlink" x="0px" y="0px"
	 viewBox="0 0 8291.3 2664.4" style="enable-background:new 0 0 8291.3 2664.4;" xml:space="preserve">
<style type="text/css">
	.st0{fill:#DCDEF2;}
	.st1{fill:#131572;}
	.st2{fill:#EA8E50;}
	.st3{fill:#1E3D70;}
	.st4{fill:#233862;}
	.st5{fill:#3C4199;}
	.st6{fill:#9FA1D3;}
	.st7{fill:#FFB07B;}
	.st8{fill:#EAF0F4;}
	.st9{fill:#C6CACC;}
	.st10{fill:#163560;}
	.st11{fill:#5E60C1;}
	.st12{fill:#E49963;}
	.st13{fill:#49C949;}
	.st14{fill:#89F18A;}
	.st15{fill:#D68D5D;}
	.st16{fill:#C65447;}
	.st17{fill:#AA413E;}
	.st18{fill:#B5453C;}
	.st19{fill:#FFFFFF;}
	.st20{fill:#E8C6A7;}
	.st21{fill:#C69D7B;}
	.st22{fill:#FFB27D;}
	.st23{fill:#2C3A64;}
	.st24{fill:#ED975D;}
</style>
<g id="Layer_1">
</g>
<g id="_x3C_Layer_x3E_">
	<path class="st0" d="M7955,2655.2H389.5c-1.1-5.2-2.3-10.5-3.4-15.8c-79-375.4-110.6-968.9,317.3-1383.8
		c865.3-839,1983.5-137.7,2403.1-158.2c419.6-20.5,443.2-825.5,1696.9-921.7c969.3-74.3,2561.2-80.2,2221.6,1235.1
		c-224.3,868.8,830.5,591.9,927.8,1228.6C7953.6,2644.6,7954.3,2649.8,7955,2655.2z"/>
	<path class="st1" d="M8291.3,2642.1v10.3c0,1.5-1.2,2.7-2.7,2.7H2.3c-1.5,0-2.7-1.2-2.7-2.7v-10.3c0-1.5,1.2-2.7,2.7-2.7h8286.3
		C8290.1,2639.4,8291.3,2640.6,8291.3,2642.1z"/>
	<g>
		<path class="st2" d="M2061,1607.3l18.9,15.4c0,0,51.8-18.6,63.5,43c0,0,3.1,26.2-13.5,26.3c-16.6,0.1-9.8-2.9-33.3-2.2
			c-23.5,0.7-43-11.7-46.5-30.8l-11.3-16.2L2061,1607.3z"/>
		<path class="st3" d="M2058.8,1640.3c15.1-15.8,13.9-27.4,13.9-27.4s-174.9-143.2-192.6-154.8c-12.1-7.9-140.9-122.1-201.1-191.7
			c-29.9-34.5-66.9-21.1-109.2-9l-34.9,10c-42.1,12.1-53,70.9-18.5,99.5c97.2,80.6,259,171.2,289.3,190.2
			c75.1,47.3,222.2,103.4,222.2,103.4S2045.8,1653.8,2058.8,1640.3z"/>
	</g>
	<path class="st4" d="M2258.4,2519.9c0,0,42.4,31.8,107.5,15c0,0,52.4-11.9,63.9,14.2c0,0-80.4,40.9-100.8,52
		c-15.3,8.4-31.3,21.7-42.7,32c-9,8.1-22.9,7-30.5-2.4c-3.5-4.4-7.6-9.5-12-15.5c-12.4-16.8-41.3-71.1-41.3-71.1L2258.4,2519.9z"/>
	<path class="st5" d="M2283.3,2503.8c0,0-25.8,59.6-85.5,48.6c0,0-121.7-100.5-205.2-205c-27.1-33.9-50.2-68.2-63.8-99.7
		c-55.4-128.2-204.8-319.4-299.8-416.3l237.7-86c0,0,76.1,153.2,177.5,341.3C2117.2,2222.4,2203.2,2376.1,2283.3,2503.8z"/>
	<g>
		<path class="st6" d="M2297.2,1372.4c1.6-14.8,2-29.4,1.4-43.7c-0.3-6.6,3.4-12.8,9.4-15.6l70.2-32.6c7.5-3.5,11.2-12.2,8.3-20
			l-24.2-66.6c-2.7-7.5-10.6-11.7-18.4-9.8l-69.2,17c-6.8,1.7-13.8-1.3-17.5-7.3c-15.8-25.8-35.7-49-58.8-68.6
			c-5.6-4.8-7.3-12.8-4-19.5l19.1-39c3.7-7.4,1.1-16.4-5.9-20.9l-59.4-37.6c-7.1-4.5-16.3-2.8-21.4,3.8l-41.7,54.7
			c-12.8-3.2-26-5.6-39.5-7.1c-18.1-2-35.9-2.2-53.4-0.8c-6.6,0.5-12.9-3.1-15.7-9.1l-26.3-56.6c-3.6-7.7-12.5-11.4-20.5-8.5
			l-65.4,23.8c-8,2.9-12.5,11.3-10.5,19.6l14.2,57.9c1.6,6.7-1.1,13.6-6.8,17.4c-18.5,11.9-35.6,26-50.9,41.9
			c-4.9,5.1-12.6,6.4-19,3.3l-63.2-31.1c-7.5-3.7-16.5-1.1-20.9,5.9l-37.5,59.1c-4.5,7.2-2.8,16.6,3.9,21.7l61.5,46.8
			c5.2,3.9,7.4,10.6,5.7,16.9c-3.7,14-6.5,28.4-8.1,43.2c-0.9,7.9-1.4,15.7-1.6,23.4c-0.2,6.4-3.9,12.1-9.7,14.8l-67.4,31.3
			c-7.5,3.5-11.1,12.1-8.3,19.9l23.9,65.8c2.9,8,11.4,12.5,19.6,10.5l54.9-13.5c7.3-1.8,14.9,1.6,18.3,8.3
			c13.6,26.3,31.1,50.2,52,71.1c5,5,6.3,12.6,3.2,18.9l-28,57c-3.8,7.6-1.1,16.9,6,21.5l59,37.4c7.1,4.5,16.4,2.8,21.4-3.9
			l40.9-53.7c4.2-5.5,11.3-7.8,17.9-5.8c15.8,4.6,32.3,7.9,49.3,9.8c9.1,1,18.2,1.5,27.2,1.6c6.2,0.1,11.9,3.7,14.5,9.4l26.7,57.5
			c3.6,7.8,12.6,11.5,20.7,8.6l65.5-23.8c7.8-2.8,12.3-11.1,10.3-19.2l-11.3-46.2c-1.8-7.3,1.6-14.8,8.2-18.3
			c33.5-17.5,63.3-41.6,87.4-70.7c4.8-5.7,12.8-7.4,19.5-4.2l51.1,25.1c7.4,3.7,16.4,1.1,20.9-5.9l37.4-59.1
			c4.6-7.2,2.9-16.7-3.9-21.9l-59-44.9c-4.9-3.7-7.2-9.9-6.1-16C2295.1,1388.2,2296.3,1380.3,2297.2,1372.4z M2075,1484.2
			c-147.5,52.7-270-100.6-185.2-233.1c12.7-19.9,41.4-43,63.5-51.1c147.7-54.4,271.1,98.2,188,230.9
			C2128.2,1451.9,2098.4,1475.9,2075,1484.2z"/>
	</g>
	<path class="st4" d="M2044.2,2086.8l-51.6,260.6c-27.1-33.9-50.2-68.2-63.8-99.7c-55.4-128.2-204.8-319.4-299.8-416.3l237.7-86
		C1866.7,1745.5,1942.8,1898.7,2044.2,2086.8z"/>
	<path class="st4" d="M1849.8,2554.5c0,0-2.6,47.5,55,53.9c0,0,34.8,0.7,34.9,31h-169.4c0,0-4.9-12.2-6-38.4
		c-0.9-20.1,19.5-72.6,19.5-72.6L1849.8,2554.5z"/>
	<path class="st5" d="M1788.7,1745.5c0,0,105.9,116.4,173.1,326c36.6,114.1-67,400.9-87.2,500.5c0,0-69.5,5.9-117-12.5
		c0,0-3.6-205.8,24.2-364.4c15.6-88.8-139.4-189.9-207.2-350.3c-46.1-109.1,10-107.3,78.9-109.9L1788.7,1745.5z"/>
	<path class="st7" d="M1666.5,1226.3c-58.9,33.3-179.6,2.6-179.6,2.6s49-56,26.7-146.2l46.3,23.5l49.7,25.2c0,0,3.2,15.9,5.4,44.5
		c0.6,7.4,1.1,15.6,1.4,24.6C1646.7,1209.7,1666.5,1226.3,1666.5,1226.3z"/>
	<path class="st8" d="M1882.5,1739.5c0,10.4-11.9,15.3-14.5,15.8c-23.8,4.3-90.1,30.2-149.9,36.1c-50.3,5.3-97.1,0.3-148.4-10
		c-6.8-1.4-22.8-5.7-23.9-12.2c-1.4-7.1-198-400.8-45.2-569.9c3.6-4,33.8,3.2,61.4,9.7c25.5,6,48.9,2.7,69.7-5.7l25.9,13.6
		c31.8,17.7,91.9,80.6,98.9,130c3.6,25.1,17.9,43.7,22.1,65.8c1.5,8.2,3.1,16.1,4.7,23.9c3.1,15.3,6.4,29.8,9.7,43.6
		c9,37.3,18.5,69.5,27.8,97.2c9.9,29.5,19.6,54,28.3,74.5c11.3,26.6,20.8,46.5,26.7,61.7C1880.1,1724.3,1882.5,1732.7,1882.5,1739.5
		z"/>
	<path class="st9" d="M1875.9,1713.5c-277.5-130.8-373.7-381.9-373.7-381.9s225.5,83.2,281.1,104.8c3.1,15.3,6.4,29.8,9.7,43.6
		c9,37.3,18.5,69.5,27.8,97.2c9.9,29.5,19.6,54,28.3,74.5C1860.4,1678.4,1870,1698.3,1875.9,1713.5z"/>
	<g>
		<path class="st8" d="M2038.3,1637.8l24,8.8c0,0,48-34,77.9,21.3c0,0,10.8,24.1-6.3,29.4c-17.1,5.2-10.9,0.3-35,8.3
			c-24.1,8-47.8,2.2-56.9-15l-16.3-12L2038.3,1637.8z"/>
		<path class="st8" d="M2058,1671.7c8.9-23.1,12.9-33.6,12.9-33.6s-181.2-147.7-199.7-160.4c-12.6-8.6-137.9-102.3-198.9-175.2
			c-30.3-36.2-78.1-52.7-124.3-43.1l-38,8c-45.9,9.6-60.9,67.8-25.2,98.3c100.4,86,269.6,185.8,301.2,206.6
			c78.3,51.5,251.6,123.7,251.6,123.7S2051.1,1689.8,2058,1671.7z"/>
	</g>
	<path class="st2" d="M1615.1,1176c-57.9,3.3-95.6-44.6-95.6-44.6s26.2-14.5,40.5-25.2l49.7,25.2
		C1609.6,1131.4,1612.8,1147.4,1615.1,1176z"/>
	<path class="st7" d="M1639.7,1116.5c0,0-87.8,63-126.2,7.7c-38.4-55.3-75.6-84.4-21.2-126.9c54.4-42.6,80.1-29.1,97.4-13.8
		C1607.1,998.8,1661.6,1098.7,1639.7,1116.5z"/>
	<path class="st4" d="M1599.1,933.6c-3.2-21.2-10.2-36.2-10.2-36.2s-5.5,22.8-47.2,19.7c-41.7-3.1-107.8,4.1-129.8,51.6
		c-1.4,3-2.7,6.1-3.8,9.3c-4-10.5-4.9-26.3-4.9-26.3c-7.9,20.5,0,46.1,0,46.1h0c-0.1,0.7-0.2,1.5-0.3,2.2c-9.2,7.8-16.9,32-16.9,32
		c2.8-6.7,9.6-11.2,15.6-13.9c-0.2,37,14.8,73.1,41.1,83.9c38.5,15.7,38.2,3.7,76.9,29.4c0,0,10.4-12.9,3.3-21.5
		c-7.1-8.7-33.8-21.2-18.9-33.8c15-12.6,20.5,1.6,26-7.1c5.5-8.7-22-33.8,13.4-57.4C1578.6,987.9,1602.2,954.8,1599.1,933.6z"/>
	<path class="st10" d="M6516.1,2561.8c0,0,4.7,76.3,19.5,77.4c2,0.1,74.9,0.1,74.9,0.1h93.2c0,0-0.7-23-27.9-27.7
		c-27.2-4.7-72.7-23.9-89.2-59.8C6569.2,2514.1,6516.1,2561.8,6516.1,2561.8z"/>
	<path class="st5" d="M6147.6,1934.9c13.3,25.1,28.6,48.7,44.5,71c48.9,68.9,102.2,125.7,111.5,179.4c1.8,10.7,4.8,22.2,8.6,34.4
		c3.9,12.3,8.7,25.2,14.2,38.6c20.8,50.3,51.8,106.7,82.8,157.9c53.6,88.6,104,162.5,104,162.5l92.4-4.4
		c-3.7-10.3-44-132.6-98-282.1c-21.9-60.7-45.2-125.2-67.7-187.5c-3-8.3-6-16.6-9-24.8c-6.9-19-13.6-37.8-20.2-56.1
		c-50.6-140.3-91-252.1-91-252.1s-202.4-85.5-223.4-30.1C6079.1,1787.3,6093.2,1832.1,6147.6,1934.9z"/>
	<path class="st4" d="M6317.6,2479.2c0,0-33.9,31.4-27.2,53.7c6.6,22.3,37.2,37.2,41.3,64.4c4.1,27.3,20.6,42.1,35.5,42.1
		c14.9,0,70.9,0,70.9,0s10.9-19.2-15.5-25c-26.4-5.8-36.4-37.8-34.7-67.5c1.7-29.7-2.5-69.4-2.5-69.4l-56.2-13.2L6317.6,2479.2z"/>
	<path class="st11" d="M6347.6,1761.2c0,0,213,345.5,213,373c0,60.8-160.9,410.9-160.9,410.9s-85.4-45.1-82-76.8
		c0,0,51.3-245.7,66.2-285.2c14.9-39.5-269.2-188.3-284.1-368.1L6347.6,1761.2z"/>
	<path class="st12" d="M6452,1583.6c0,0,43.9,25,56.2,25c12.3,0,60.6-9.3,74-2.5c13.5,6.9,37.8,34.5,42.4,43.6
		c8.2,16.2-33.1,9.1-52.6-4.8c-2.8-2-6.4-2.8-9.8-2c-10.1,2.2-31.1,6-41.3,2.3c-13.6-5-85.5-10.7-85.5-10.7L6452,1583.6z"/>
	<path class="st13" d="M6117.8,1243.4c0,0,45.5,323.6,120.9,352.6c37.2,14.3,201.6,46.7,250.3,50c0,0,11.9-9.7,9-49
		c0,0-172.3-63.2-196.7-97.6c-36.4-51.2,22.6-209.1-23.1-257.2C6232.5,1194.1,6155.5,1173.4,6117.8,1243.4z"/>
	<path class="st12" d="M6295.8,1223c-60.9,15.7-161.8-40.7-161.8-40.7s39.2-26.3,53.7-84.2c0.7-2.9,1.4-5.9,2-9
		c6.4-1.4,18.4-3.9,31.3-6.6l46.5,41.7c0,0-1.1,17.3-6.9,47c-1,5.2-2.2,10.8-3.5,16.7C6282.1,1203.4,6295.8,1223,6295.8,1223z"/>
	<path class="st14" d="M6069.6,1475.3c8.7,117.3-2.7,295.6,7.1,326.5c8.5,26.6,105.8,10.8,144.6,1.9c14.4-3.3,31.8-8,49.7-13.6
		c50.1-15.5,104.8-37.7,110.6-54.2c0.2-0.6,0.4-1.3,0.5-1.9c0.5-2.4,0.4-4.6-0.1-6.9c-2-8.4-9.5-17.5-10.4-38.2
		c-1-23.2-0.8-50.5-1.7-79.9c0-3.3-0.1-6.9-0.5-10.2l0-1.2c0-0.6,0-1.2,0-1.9c-0.8-32.7-2.6-67.2-4.5-101.3
		c-1.3-21.4-2.7-42.7-4.4-63c-4.4-52.5-10.3-99.2-18.1-128.8c-12.7-48.1-40.8-79.5-66.4-102.5l-18.5-15.9
		c-20.6,4.5-45.1,1.5-67.1-8.9c-23.9-11.3-32.1-19.5-36.3-16.4C6099,1201.5,6059.3,1331.9,6069.6,1475.3z"/>
	<path class="st13" d="M6271.1,1790.1c50.1-15.5,104.8-37.7,110.6-54.2c0.2-0.6,0.4-1.3,0.5-1.9c0-2.3-0.1-4.6-0.1-6.9
		c-2-8.4-9.5-17.5-10.4-38.2c-1-23.2-0.8-50.5-1.7-79.9c0-3.3-0.1-6.9-0.5-10.2l0-1.2c0-0.6,0-1.2,0-1.9l-202.7-258.2
		C6166.9,1337.6,6030.6,1621.3,6271.1,1790.1z"/>
	<path class="st15" d="M6267.5,1124.2c0,0-1.1,17.3-6.9,47c-45.4-14.7-66-55.7-72.9-73.1c0.7-2.9,1.4-5.9,2-9
		c6.4-1.4,18.4-3.9,31.3-6.6L6267.5,1124.2z"/>
	<path class="st12" d="M6273.6,1150.4c0,0-99-16.5-87.8-78c11.2-61.5,6-105,69.7-97.1c63.7,7.9,71.6,33.7,72.9,55.1
		C6329.7,1051.8,6299.6,1153.1,6273.6,1150.4z"/>
	<g>
		
			<rect x="6700.2" y="1443.5" transform="matrix(-0.951 -0.3092 0.3092 -0.951 12597.5586 5123.9409)" class="st11" width="9.2" height="240.4"/>
		
			<rect x="6420" y="1661.7" transform="matrix(-0.9998 -2.134937e-02 2.134937e-02 -0.9998 13055.0703 3477.7747)" class="st11" width="252.3" height="15.1"/>
	</g>
	<path class="st12" d="M6424.9,1686.1c0,0,81,21.4,111.4,19.1c30.4-2.2,55.7-16.7,59.5-24.2c3.8-7.5,11.9-20.9-8.8-18.5
		c-20.7,2.5-48.9,6.9-49.8,2.9c-0.9-4,16.9-3.6,16.9-3.6s5.4-7.8-1.4-8.1c-6.8-0.3-26.4-5.6-33.8-2c-7.3,3.7-14.1,17.2-19.4,16.6
		c-5.3-0.6-67.8-28.1-67.8-28.1L6424.9,1686.1z"/>
	<path class="st14" d="M6137.9,1256.7c0,0,9.6,326.7,81.3,363.8c35.4,18.3,195.3,68.7,243.2,77.3c0,0,12.9-8.3,14.4-47.7
		c0,0-164.2-81.9-184.8-118.7c-30.6-54.9,45.5-205.3,5.4-258.2C6257.3,1220.3,6183.1,1191.3,6137.9,1256.7z"/>
	<path class="st5" d="M6187.7,1098.1c0,0-1.1-21.1,11.9-33.2c0,0-4.5-21.2,3.8-24.6c8.4-3.5,10.1,14.3,13.9,11.5
		c3.8-2.8,20.9-16,28.2-35.6c7.3-19.5,74.3,4.1,82.2,7.6s32.9-9.4,37.8-19.8c0,0-14-11.2-20.2-19.5c-6.3-8.4-50.2-64.9-111.6-48.8
		c-61.4,16-69.7,45.3-66.3,70.4C6171,1031.3,6162.6,1089.7,6187.7,1098.1z"/>
	<g>
		<path class="st6" d="M6089.7,1807l-191.8-115.6c-15.9-9.8-24.9-27.6-23.5-46.2c2-23.7,2.9-47.6,2.9-71.8c0-45-3.2-88.9-10-131.7
			c-3.2-20,5.9-39.8,23.2-50.1l200.4-120.9c21.5-12.7,29.6-40.1,18.3-62.8l-94.3-192c-10.8-21.7-35.9-31.8-58.6-23.7l-202.6,73.5
			c-19.5,7.6-41.8,1-55-16.1c-55.7-72.1-122.9-135.1-198.9-186.7c-18.3-12.5-25.9-36.4-18.3-57.2l45-123.1
			c8.3-23.5-2-49.8-24.4-61.1l-190.8-93.3c-3.9-2-7.8-3.4-12-4.2c-19.5-4.2-40.3,4.6-50.8,22.5L5162,689.7l-21,34.9
			c-39.3-5.6-79.9-8.5-120.7-8.5c-55,0-109,5.1-160.8,14.9c-19.8,3.7-39.8-4.9-50.1-22.2l-97.2-161.5c-13.4-22-41.3-30.3-64.3-18.8
			l-146.8,72.1l-42,20.8c-23,11.2-34,38.1-25.2,62.1l61.3,169.3c7.3,19.5,1.5,41.5-14.7,54.2c-47.6,38.8-91.1,82.6-129.3,130.5
			c-3.7,3.9-6.6,7.8-9.8,12c-1,1.5-2.2,2.7-3.4,3.9c-13.4,14.4-34.2,19.1-52.8,12.2l-200.1-72.6c-2.2-1-4.6-1.5-6.8-2
			c-21.5-4.4-44,6.4-54,26.4l-93.3,190.1c-11.2,23-3.2,50.6,18.8,64l200.1,120.5c17.1,10,25.9,29.6,22.7,49.1
			c-6.6,43-10,87.2-10,132.4c0,23.9,1,47.6,2.9,71.1c1.5,19.1-7.8,37.4-24.2,47.2L3948.9,1808c-21.3,12.7-29.3,39.8-18.3,62.3
			l93.6,189.9c11.2,23,37.9,34,62.3,25.2l160.3-58.2c21.5-7.8,45.2,0,57.9,18.8c49.1,74.5,109.7,140.7,179.1,196.7
			c16.6,12.9,23,35.4,15.6,55.5l-65.5,180.3c-8.8,24.2,2.2,51.1,25.2,62.5l189.4,93.1c22.7,11.2,50.3,2.9,63-18.6l5.1-8.3
			l100.4-166.4c10.8-17.8,31-26.9,51.6-23.2h0.2c49.1,8.8,99.7,13.4,151.5,13.4c27.6,0,54.7-1.5,81.9-3.9c18.8-2,36.9,7.1,46.7,23.2
			l98.7,164c13.4,22.5,42,30.8,65.2,19.3l189.1-93.1c5.4-2.7,10-6.4,13.9-10.3c12.5-13.2,17.1-33,10.8-50.8l-49.4-135.1
			c-5.9-16.6-2.4-35.2,8.6-48.4c2.9-3.4,6.4-6.6,10.3-9.3c95.3-63.5,176.7-145.4,239.9-240.9c10.5-16.4,30.1-24.2,48.9-21
			c2.7,0.5,5.4,1.2,8.1,2.2l162,58.9c23.5,8.6,49.6-2,60.8-24.4l2.2-4.4l91.1-185.2C6120.3,1848.3,6112,1820.5,6089.7,1807z
			 M4575.6,1441.7c9.3-33,22-66.5,38.6-99.9c31.8-63.8,110.2-142.7,174.2-174.2c6.8-3.4,13.7-6.6,20.5-9.8
			c418.8-188.1,822.7,223.1,619.6,642.1c-26.6,54.7-85.5,119-142.9,158.8c-13.4,9-26.6,17.1-39.1,23c-58.4,28.3-116.6,45-173.2,51.3
			C4750.3,2069,4484.4,1772.1,4575.6,1441.7z"/>
	</g>
	<g>
		<path class="st14" d="M7565.8,2326.8L7523,2301c-3.5-2.2-5.6-6.2-5.2-10.3c0.4-5.3,0.7-10.6,0.7-16c0-10-0.7-19.8-2.2-29.4
			c-0.7-4.5,1.3-8.9,5.2-11.2l44.7-27c4.8-2.8,6.6-8.9,4.1-14l-21-42.9c-2.4-4.9-8-7.1-13.1-5.3l-45.2,16.4
			c-4.4,1.7-9.3,0.2-12.3-3.6c-12.4-16.1-27.4-30.2-44.4-41.7c-4.1-2.8-5.8-8.1-4.1-12.8l10-27.5c1.9-5.2-0.4-11.1-5.5-13.6
			l-42.6-20.8c-0.9-0.4-1.7-0.8-2.7-0.9c-4.4-0.9-9,1-11.3,5l-19.3,32l-4.7,7.8c-8.8-1.3-17.8-1.9-26.9-1.9
			c-12.3,0-24.3,1.1-35.9,3.3c-4.4,0.8-8.9-1.1-11.2-5l-21.7-36c-3-4.9-9.2-6.8-14.3-4.2l-32.8,16.1l-9.4,4.6
			c-5.1,2.5-7.6,8.5-5.6,13.9l13.7,37.8c1.6,4.4,0.3,9.3-3.3,12.1c-10.6,8.7-20.3,18.4-28.8,29.1c-0.8,0.9-1.5,1.7-2.2,2.7
			c-0.2,0.3-0.5,0.6-0.8,0.9c-3,3.2-7.6,4.3-11.8,2.7l-44.7-16.2c-0.5-0.2-1-0.3-1.5-0.4c-4.8-1-9.8,1.4-12.1,5.9L7084,2193
			c-2.5,5.1-0.7,11.3,4.2,14.3l44.7,26.9c3.8,2.2,5.8,6.6,5.1,11c-1.5,9.6-2.2,19.5-2.2,29.6c0,5.3,0.2,10.6,0.7,15.9
			c0.3,4.3-1.7,8.3-5.4,10.5l-43,26c-4.7,2.8-6.5,8.9-4.1,13.9l20.9,42.4c2.5,5.1,8.5,7.6,13.9,5.6l35.8-13c4.8-1.7,10.1,0,12.9,4.2
			c11,16.6,24.5,31.4,40,43.9c3.7,2.9,5.1,7.9,3.5,12.4l-14.6,40.2c-2,5.4,0.5,11.4,5.6,14l42.3,20.8c5.1,2.5,11.2,0.7,14.1-4.1
			l1.1-1.9l22.4-37.1c2.4-4,6.9-6,11.5-5.2h0.1c11,2,22.2,3,33.8,3c6.2,0,12.2-0.3,18.3-0.9c4.2-0.4,8.2,1.6,10.4,5.2l22,36.6
			c3,5,9.4,6.9,14.6,4.3l42.2-20.8c1.2-0.6,2.2-1.4,3.1-2.3c2.8-2.9,3.8-7.4,2.4-11.3l-11-30.2c-1.3-3.7-0.5-7.9,1.9-10.8
			c0.7-0.8,1.4-1.5,2.3-2.1c21.3-14.2,39.4-32.4,53.6-53.8c2.3-3.7,6.7-5.4,10.9-4.7c0.6,0.1,1.2,0.3,1.8,0.5l36.2,13.1
			c5.2,1.9,11.1-0.4,13.6-5.5l0.5-1l20.3-41.3C7572.6,2336,7570.8,2329.8,7565.8,2326.8z M7227.9,2245.3c2.1-7.4,4.9-14.8,8.6-22.3
			c7.1-14.2,24.6-31.8,38.9-38.9c1.5-0.8,3.1-1.5,4.6-2.2c93.5-42,183.6,49.8,138.3,143.3c-5.9,12.2-19.1,26.6-31.9,35.4
			c-3,2-5.9,3.8-8.7,5.1c-13,6.3-26,10-38.7,11.5C7266.8,2385.3,7207.5,2319,7227.9,2245.3z"/>
	</g>
	<g>
		<path class="st8" d="M7998.1,1489.9l-64.2-38.7c-5.3-3.3-8.3-9.2-7.8-15.4c0.7-7.9,1-15.9,1-24c0-15-1.1-29.7-3.3-44.1
			c-1.1-6.7,2-13.3,7.8-16.8l67-40.5c7.2-4.2,9.9-13.4,6.1-21l-31.5-64.2c-3.6-7.3-12-10.6-19.6-7.9l-67.7,24.6
			c-6.5,2.5-14,0.3-18.4-5.4c-18.6-24.1-41.1-45.2-66.5-62.4c-6.1-4.2-8.7-12.2-6.1-19.1l15-41.2c2.8-7.8-0.7-16.7-8.2-20.4
			l-63.8-31.2c-1.3-0.7-2.6-1.1-4-1.4c-6.5-1.4-13.5,1.6-17,7.5l-28.9,47.9l-7,11.7c-13.2-1.9-26.7-2.9-40.4-2.9
			c-18.4,0-36.4,1.7-53.8,5c-6.6,1.2-13.3-1.6-16.8-7.4l-32.5-54c-4.5-7.4-13.8-10.1-21.5-6.3l-49.1,24.1l-14.1,6.9
			c-7.7,3.8-11.4,12.7-8.4,20.8l20.5,56.6c2.5,6.5,0.5,13.9-4.9,18.1c-15.9,13-30.5,27.6-43.2,43.6c-1.2,1.3-2.2,2.6-3.3,4
			c-0.3,0.5-0.7,0.9-1.1,1.3c-4.5,4.8-11.4,6.4-17.7,4.1l-66.9-24.3c-0.7-0.3-1.6-0.5-2.3-0.7c-7.2-1.5-14.7,2.1-18.1,8.8
			l-31.2,63.6c-3.8,7.7-1.1,16.9,6.3,21.4l66.9,40.3c5.7,3.3,8.7,9.9,7.6,16.4c-2.2,14.4-3.4,29.2-3.4,44.3c0,8,0.3,15.9,1,23.8
			c0.5,6.4-2.6,12.5-8.1,15.8l-64.4,38.9c-7.1,4.2-9.8,13.3-6.1,20.8l31.3,63.5c3.8,7.7,12.7,11.4,20.8,8.4l53.6-19.5
			c7.2-2.6,15.1,0,19.4,6.3c16.4,24.9,36.7,47.1,59.9,65.8c5.6,4.3,7.7,11.8,5.2,18.6l-21.9,60.3c-2.9,8.1,0.7,17.1,8.4,20.9
			l63.3,31.1c7.6,3.8,16.8,1,21.1-6.2l1.7-2.8l33.6-55.7c3.6-6,10.4-9,17.2-7.8h0.1c16.4,2.9,33.3,4.5,50.7,4.5
			c9.2,0,18.3-0.5,27.4-1.3c6.3-0.7,12.3,2.4,15.6,7.8l33,54.8c4.5,7.5,14.1,10.3,21.8,6.5l63.3-31.1c1.8-0.9,3.4-2.1,4.7-3.4
			c4.2-4.4,5.7-11,3.6-17l-16.5-45.2c-2-5.6-0.8-11.8,2.9-16.2c1-1.1,2.1-2.2,3.4-3.1c31.9-21.2,59.1-48.6,80.3-80.6
			c3.5-5.5,10.1-8.1,16.3-7c0.9,0.2,1.8,0.4,2.7,0.7l54.2,19.7c7.8,2.9,16.6-0.7,20.3-8.2l0.7-1.5l30.5-61.9
			C8008.3,1503.7,8005.5,1494.4,7998.1,1489.9z M7491.6,1367.7c3.1-11,7.4-22.2,12.9-33.4c10.6-21.3,36.9-47.7,58.3-58.3
			c2.3-1.1,4.6-2.2,6.9-3.3c140.1-62.9,275.2,74.6,207.3,214.8c-8.9,18.3-28.6,39.8-47.8,53.1c-4.5,3-8.9,5.7-13.1,7.7
			c-19.5,9.5-39,15-57.9,17.2C7550.1,1577.5,7461.2,1478.2,7491.6,1367.7z"/>
	</g>
	<g>
		<path class="st8" d="M847.8,1480.1l-47.5-22c-3.9-1.9-6.5-5.8-6.6-10.2c-0.1-5.6-0.5-11.2-1.1-16.8c-1.1-10.5-3-20.6-5.7-30.4
			c-1.2-4.6,0.4-9.4,4.1-12.2l43.6-33.2c4.7-3.5,5.9-10.1,2.7-15.1l-26.8-42.3c-3-4.8-9.2-6.5-14.2-4l-45.3,22.2
			c-4.4,2.3-9.7,1.3-13.2-2.4c-14.8-15.4-32-28.3-51-38.4c-4.6-2.4-6.9-7.8-5.7-12.8l7.4-29.8c1.3-5.7-1.7-11.5-7.2-13.6l-46.7-16.9
			c-1-0.4-1.9-0.6-2.9-0.7c-4.7-0.5-9.3,2.1-11.3,6.5l-16.5,35.5l-4,8.7c-9.3-0.3-18.8,0-28.3,1.1c-12.8,1.4-25.2,3.9-37,7.5
			c-4.5,1.4-9.4-0.1-12.2-3.9l-26.7-35.1c-3.7-4.8-10.4-6-15.4-2.8l-32.3,20.5l-9.3,5.9c-5.1,3.2-6.9,9.7-4.3,15.1l18.5,37.8
			c2.2,4.4,1.4,9.6-2,13c-10.1,10.2-19.1,21.5-26.8,33.6c-0.8,1-1.3,2-2,3c-0.2,0.4-0.4,0.7-0.7,1c-2.8,3.7-7.5,5.3-12,4.2
			l-48.4-11.8c-0.5-0.2-1.1-0.2-1.6-0.3c-5.1-0.5-10.1,2.6-11.9,7.5l-16.9,46.6c-2,5.6,0.5,11.8,6,14.4l49.6,23
			c4.2,1.9,6.8,6.2,6.5,10.9c-0.4,10.2-0.1,20.5,1,31.1c0.6,5.6,1.4,11.1,2.5,16.5c0.8,4.4-0.9,8.9-4.4,11.6l-41.9,31.9
			c-4.6,3.5-5.8,10-2.7,15l26.6,41.8c3.2,5.1,9.7,6.9,15.1,4.3l35.8-17.6c4.8-2.4,10.5-1.1,13.9,2.9c13.3,16.1,29.1,30,46.6,41.2
			c4.2,2.6,6.2,7.7,5,12.5l-10.7,43.6c-1.4,5.8,1.8,11.8,7.4,13.9l46.4,16.9c5.6,2,11.8-0.6,14.2-5.9l1-2.1l19.2-41.2
			c2.1-4.4,6.5-7,11.4-6.7l0.1,0c11.6,0.8,23.5,0.6,35.6-0.7c6.4-0.7,12.7-1.7,18.9-3c4.3-0.9,8.8,0.7,11.4,4.2l27.1,35.6
			c3.7,4.9,10.6,6.1,15.7,2.8l41.6-26.4c1.2-0.8,2.2-1.7,3-2.7c2.6-3.4,3.1-8.1,1.2-12.1l-14.9-30.2c-1.8-3.7-1.5-8.1,0.8-11.5
			c0.6-0.9,1.3-1.7,2.2-2.4c20.6-17.2,37.4-38.3,49.7-62.1c2-4.1,6.4-6.4,10.8-6.1c0.6,0,1.3,0.1,1.9,0.3l39.2,9.6
			c5.7,1.4,11.5-1.7,13.5-7.2l0.4-1.1l16.5-45.4C855.9,1488.9,853.3,1482.6,847.8,1480.1z M486.3,1433.3c1.3-7.9,3.4-16,6.5-24.2
			c5.8-15.6,22-36,36.1-44.9c1.5-1,3-1.9,4.5-2.8c92.7-54.3,197,31.1,160.3,133.7c-4.8,13.4-16.9,29.8-29.2,40.5
			c-2.9,2.4-5.8,4.7-8.5,6.3c-12.9,8.1-26,13.4-39,16.3C542.8,1574.8,473.5,1512.4,486.3,1433.3z"/>
	</g>
	<path class="st12" d="M4896.3,2364.4c4,4.5,4.5,9.6,2.5,15c0,0,0,0.1,0,0.1c-3.6,10-15.6,21.2-29.5,32.3c-1.8,1.4-3.4,2.7-4.7,3.9
		c-0.4,0.3-0.7,0.6-1.1,1c-0.3,0.2-0.6,0.5-0.8,0.7c-13,11.9-8.1,14.7-31.4,38.9c-26.5,27.6-44.8,28.1-50,25.6
		c-4.4-2.1,4.5-16.8,14.4-33.3c0.5-0.8,1-1.6,1.4-2.4c1.3-2.2,2.6-4.4,3.9-6.6c11.6-19.8,8.6-29.1,5.9-58.6
		c-2.2-24-37.3-133.9-37.3-133.9l50.9-8.8c0,0,15.3,87.5,32.2,101c9,7.2,19.1,7.3,27.8,12.6c0.6,0.4,1.2,0.8,1.8,1.1
		C4887.3,2356.5,4892.3,2359.8,4896.3,2364.4z"/>
	<path class="st16" d="M4896.3,2364.4c4,4.5,4.5,9.6,2.5,15c0,0,0,0.1,0,0.1c-4.4,10-16.1,21.1-29.5,32.2c-1.8,1.5-3.3,2.8-4.7,4
		c-0.4,0.3-0.7,0.6-1.1,1c-0.3,0.2-0.6,0.5-0.8,0.7c-13,11.9-8.1,14.7-31.4,38.9c-26.5,27.6-44.8,28.1-50,25.6
		c-4.4-2.1,4.5-16.8,14.4-33.3c5.2-1.9,29.2-11.6,47.3-34.9c16-20.4,26.6-46.6,37.5-61.8c0.6,0.4,1.2,0.8,1.8,1.1
		C4887.3,2356.5,4892.3,2359.8,4896.3,2364.4z"/>
	<path class="st12" d="M4486.1,2332.6c-3.1,15.7-25.5,13.1-50.5,7c-25-6.1-19.1,1.2-54.7-2.8c-35.6-3.9-46.4-17.2-47.5-22.5
		c-1-4.7,16.6-6.4,35.5-8.5c2.4-0.3,4.8-0.6,7.1-0.9c21.3-2.7,36.9-16.4,56.2-27.7c18.3-10.7,45.7-54.3,45.7-54.3l48.8,3.9
		c0,0-25.6,38.9-35.5,55.8c-5.8,9.9-5.5,23.1-4.8,33.3C4486.8,2321.4,4487.2,2327.1,4486.1,2332.6z"/>
	<path class="st16" d="M4435.5,2339.6c-25-6.1-19.1,1.2-54.7-2.8c-35.6-3.9-46.4-17.2-47.5-22.5c-1-4.7,16.6-6.4,35.5-8.5l0.2,0.4
		c0,0,21.3,15.1,51,15.8c24.1,0.6,49.7-6.3,66.4-6.1c0.4,5.5,0.7,11.2-0.4,16.7C4482.9,2348.3,4460.5,2345.7,4435.5,2339.6z"/>
	<path class="st12" d="M4594.7,1615.6c0,0-11.6-28.5-24.4-29.7c-12.8-1.2-53.5-7.6-56.4-1.7c-2.9,5.8,0,26.8,8.7,34.3
		c8.7,7.6,62.8,19.8,62.8,19.8L4594.7,1615.6z"/>
	<path class="st17" d="M4673.1,2020.5l105.2,283.1c0,0,16.2,1.6,31.7-2.9c14.3-4.1,30.6-14.9,30.6-14.9s-26.1-271.9-73.9-328.4
		C4718.8,1900.8,4673.1,2020.5,4673.1,2020.5z"/>
	<path class="st16" d="M5089.2,1905.9c0,0-302.3-102.2-369.7-80.5c-67.4,21.7-269.8,424.5-269.8,424.5s4.6,6.1,17,10.8
		c11.6,4.3,39.7,4.1,39.7,4.1s182.7-156.6,204.4-202.3c21.7-45.7,30.4-89.2,52.2-84.8c21.7,4.3,280.6,106.6,339.3,45.7
		c58.7-60.9,43.4-140,43.4-140L5089.2,1905.9z"/>
	<path class="st18" d="M4904.5,1430.4c-4.8-10-10.2-27.7-12.9-59.2c0.4,3.1,5.8,42.9,21.2,65.5c62.9,41.3,183.4,179.1,181,205.2
		c0,0,42.4-72,43.2-72.4c0,0,78.3-99.6-14.5-156.6c-47.2-29-46.9-66.2-45-98.5c2-32.3-12.9-171.4-107.3-135c0,0-15.2-6.7-22-5.7
		c0,0,5.5,1.1,8.4,4c-11-0.6-26.6,0.2-39.7,7.6C4882.3,1204.8,4851.3,1381.4,4904.5,1430.4z"/>
	<path class="st12" d="M4916.5,1438.7c-0.3,0.1,30.4,16.1,53.4,9.8c21.7-5.9,35.9-34.1,35.6-34.1c-9.2-1.8-11.8-14.5-11.6-68.7
		l-4.2,0.8l-69.9,13.8c0,0,1.6,22,1.6,42.7C4921.5,1420.3,4920.5,1436.8,4916.5,1438.7z"/>
	<path class="st15" d="M4919.9,1360.3c0,0,1.6,22,1.6,42.7c39.1-1.1,59.8-36.8,68.2-56.5L4919.9,1360.3z"/>
	<path class="st18" d="M4996.9,1338.8c0,0,20.5-32.4,25.4-60c3.5-19.8-6.6-93-80.2-82.5c0,0-21.4,2.1-41.5,15.7
		c-16,10.8-39,34.1-13.3,98l6.7,21.6L4996.9,1338.8z"/>
	<path class="st12" d="M4906.8,1379.9c0,0,92.5,1.5,92.5-56.1c0.1-57.6,12-96.2-47-99.6s-70.5,18.6-75.2,37.8
		C4872.4,1281.2,4882.7,1378,4906.8,1379.9z"/>
	<path class="st18" d="M4910.2,1222.8c0,0,25.3,67.6,64.2,77.6c38.9,10,55.7-0.4,55.7-0.4s-29.8-23.7-36-65
		C4994.1,1234.9,4929.3,1190.6,4910.2,1222.8z"/>
	<path class="st18" d="M4916.5,1228.2c0,0-18.9,15.1-23.5,29.8c-4.6,14.7-6.7,44.9-15.5,43.8c0,0-19.1-45.9,2.4-71.9
		C4902.6,1202.4,4916.5,1228.2,4916.5,1228.2z"/>
	<path class="st8" d="M5122.4,1687.5c9.1-38.2-21.9-112.5-54.3-173.9c-29.4-55.7-59.9-100.9-62.6-99.2c-77.5,46-84.5,7.8-84.5,7.8
		s-70.4,9.4-90.3,43.7c-27.6,47.5-57.6,189.9-87.1,187.8c-13.5-1-149.8-52.2-149.8-52.2s-22.7,21.3-18.4,47.4
		c0,0,67.3,45.1,124.2,73.8c30.1,15.2,57.3,25.9,70.1,22.8c25.9-6.1,66.4-66.2,88.3-101.6c0-0.1,0.1-0.2,0.1-0.2
		c27.9,158.1-10,194.1,9.2,210.8c20.3,17.6,49.3-8.4,113.1,19.3c41.8,18.2,99.9,44.4,139,49c20.5,2.4,35.8-1.2,40.8-15
		C5174.6,1867.3,5105.1,1760.4,5122.4,1687.5z"/>
	<path class="st19" d="M4927.4,1344.9c0,0-1.7,7.3-19.9,6.2c0,0-15.3-0.9-14.8-9C4892.6,1342.1,4907.4,1336.4,4927.4,1344.9z"/>
	<path class="st9" d="M5160.1,1907.5c-5,13.8-20.3,17.4-40.8,15c-27.1-11.8-143.9-57.1-142.6-87.8c1.9-45.4,22.5-46.9,8-102.9
		c-11.6-45,96.4-128.7,113.6-146.9c32.4,61.4,33.3,64.4,24.2,102.6C5105.1,1760.4,5174.6,1867.3,5160.1,1907.5z"/>
	<path class="st9" d="M4857.9,1643.8c-21.9,35.4-62.4,95.5-88.3,101.6c-12.8,3-40-7.6-70.1-22.8c22,5.7,43.3,5.5,64,3.5
		c22.5-2.2,29-29.7,64.5-71C4851.1,1628.2,4856.8,1634.9,4857.9,1643.8z"/>
	<path class="st12" d="M4966.2,1730.7c0,0-19.6-15.2-38.1-11.6c-18.5,3.6-27.6,16.3-26.8,22.1c0.7,5.8,10.5,22.1,24.6,23.6
		c14.1,1.5,54.4-8.7,54.4-8.7L4966.2,1730.7z"/>
	<path class="st8" d="M5005.5,1414.3c0,0,75.4,4.6,101.5,41c36.7,51.2,100.5,260.4,83.1,308.2l-229.3-1c0,0-5.6-26,2.2-38.5
		c7.7-12.6,133.4-32.9,139.2-38.7c5.8-5.8-72.5-113.1-72.5-130.5S5005.5,1414.3,5005.5,1414.3z"/>
	<polygon class="st14" points="4896.1,1658.6 4618.8,1658.6 4668.9,1833.1 4946.5,1833.1 	"/>
	<rect x="4669.9" y="1826.3" class="st13" width="363" height="6.8"/>
	<path class="st13" d="M4779.3,1743c-1.8-6.1-8.2-11.1-14.3-11.1c-6.1,0-9.7,5-7.9,11.1c1.8,6.1,8.2,11.1,14.3,11.1
		C4777.5,1754.1,4781,1749.2,4779.3,1743z"/>
	<path class="st14" d="M3511.8,2152.2v74c0,15.3-12.5,27.8-27.8,27.8h-437.3c-15.3,0-27.8-12.5-27.8-27.8v-74
		c0-15.3,12.5-27.8,27.8-27.8H3484C3499.3,2124.4,3511.8,2136.9,3511.8,2152.2z"/>
	<path class="st13" d="M3511.8,2212.7v13.5c0,15.3-12.5,27.8-27.8,27.8h-437.3c-15.3,0-27.8-12.5-27.8-27.8v-14.6h484.9
		C3506.6,2211.6,3509.3,2211.9,3511.8,2212.7z"/>
	<g>
		<path class="st20" d="M3124.2,2253.9l-19.7,74.7c0,0,0,0,0,0l-82.1,310.8h-8.6l47.4-257.8c0-0.3,0.1-0.5,0.2-0.8l23.5-127.5
			L3124.2,2253.9z"/>
	</g>
	<path class="st21" d="M3124.2,2253.9l-19.7,74.7c0,0,0,0,0,0c-1.1,0.6-37,19.1-43.1,52.2l23.5-127.5L3124.2,2253.9z"/>
	<g>
		<path class="st20" d="M3511.8,2639.4h-8.6l-66.9-253.2c0,0,0,0,0,0l-15.2-57.6c0,0,0,0,0,0l-19.7-74.7l39.4-0.7l13.4,72.9l10,54.6
			c0,0.3,0.1,0.5,0.2,0.8L3511.8,2639.4z"/>
	</g>
	<path class="st20" d="M3378.5,2351.7c0,0-0.1,0-0.1-0.1C3378.2,2351.3,3378.2,2351.3,3378.5,2351.7z"/>
	<path class="st21" d="M3454.1,2326.1c-7.3,10.6-17.3,30.5-17.9,60l-15.2-57.6c0,0,0,0,0,0l-19.7-74.7l39.4-0.7L3454.1,2326.1z"/>
	<path class="st5" d="M2958.9,668c10.2-10.6,17.1-6.6,17.1-6.6s120,92.2,131.5,98.9c11.5,6.7,167.6,11.2,167.6,11.2
		s62.5-0.7,77.7,31.4c13.2,27.9,3.9,51.9-9.7,69.6c-16.2,21-43.8,29.8-69.3,22.3c-57.2-16.7-171-50.8-192.3-63.8
		c-47.4-29-133-144.8-133-144.8S2950.9,676.3,2958.9,668z"/>
	<g>
		<path class="st14" d="M3088.3,578.5l-59.9-36.1c-5-3.1-7.8-8.6-7.3-14.4c0.6-7.4,0.9-14.9,0.9-22.4c0-14-1-27.8-3.1-41.1
			c-1-6.3,1.8-12.4,7.3-15.7l62.6-37.8c6.7-4,9.2-12.5,5.7-19.6l-29.5-60c-3.4-6.8-11.2-9.9-18.3-7.4l-63.3,23
			c-6.1,2.4-13.1,0.3-17.2-5c-17.4-22.5-38.4-42.2-62.1-58.3c-5.7-3.9-8.1-11.4-5.7-17.9l14-38.5c2.6-7.3-0.6-15.6-7.6-19.1
			l-59.6-29.2c-1.2-0.6-2.4-1.1-3.7-1.3c-6.1-1.3-12.6,1.5-15.9,7l-27,44.7l-6.6,10.9c-12.3-1.8-25-2.7-37.7-2.7
			c-17.2,0-34,1.6-50.2,4.7c-6.2,1.1-12.4-1.5-15.7-6.9l-30.4-50.5c-4.2-6.9-12.9-9.5-20.1-5.9l-45.9,22.5l-13.1,6.5
			c-7.2,3.5-10.6,11.9-7.9,19.4l19.2,52.9c2.3,6.1,0.5,13-4.6,16.9c-14.9,12.1-28.5,25.8-40.4,40.8c-1.1,1.2-2.1,2.4-3.1,3.7
			c-0.3,0.5-0.7,0.8-1.1,1.2c-4.2,4.5-10.7,6-16.5,3.8l-62.5-22.7c-0.7-0.3-1.5-0.5-2.1-0.6c-6.7-1.4-13.7,2-16.9,8.2l-29.2,59.4
			c-3.5,7.2-1,15.8,5.9,20l62.5,37.6c5.3,3.1,8.1,9.2,7.1,15.3c-2.1,13.4-3.1,27.3-3.1,41.4c0,7.5,0.3,14.9,0.9,22.2
			c0.5,6-2.4,11.7-7.6,14.7l-60.2,36.3c-6.6,4-9.2,12.4-5.7,19.5l29.2,59.3c3.5,7.2,11.8,10.6,19.5,7.9l50.1-18.2
			c6.7-2.4,14.1,0,18.1,5.9c15.3,23.3,34.3,44,56,61.4c5.2,4,7.2,11.1,4.9,17.3l-20.5,56.3c-2.7,7.6,0.7,16,7.9,19.5l59.2,29.1
			c7.1,3.5,15.7,0.9,19.7-5.8l1.6-2.6l31.4-52c3.4-5.6,9.7-8.4,16.1-7.3h0.1c15.3,2.7,31.1,4.2,47.3,4.2c8.6,0,17.1-0.5,25.6-1.2
			c5.9-0.6,11.5,2.2,14.6,7.3l30.8,51.2c4.2,7,13.1,9.6,20.4,6l59.1-29.1c1.7-0.8,3.1-2,4.4-3.2c3.9-4.1,5.3-10.3,3.4-15.9
			l-15.4-42.2c-1.8-5.2-0.8-11,2.7-15.1c0.9-1.1,2-2.1,3.2-2.9c29.8-19.8,55.2-45.4,75-75.3c3.3-5.1,9.4-7.6,15.3-6.6
			c0.8,0.2,1.7,0.4,2.5,0.7l50.6,18.4c7.3,2.7,15.5-0.6,19-7.6l0.7-1.4l28.5-57.9C3097.8,591.4,3095.2,582.7,3088.3,578.5z
			 M2615.2,464.3c2.9-10.3,6.9-20.8,12.1-31.2c9.9-19.9,34.4-44.6,54.4-54.4c2.1-1.1,4.3-2.1,6.4-3.1
			c130.8-58.8,257,69.7,193.6,200.6c-8.3,17.1-26.7,37.2-44.7,49.6c-4.2,2.8-8.3,5.3-12.2,7.2c-18.2,8.9-36.4,14-54.1,16
			C2669.8,660.3,2586.7,567.5,2615.2,464.3z"/>
	</g>
	<path class="st22" d="M2826.3,698.2c0,0,0.2-44.3-6.8-57.2c-7-12.9-23-29-32.2-23.8c-9.1,5.2-11.9,48.3-9.1,56.1
		c2.8,7.7,23.5,36.7,23.5,36.7L2826.3,698.2z"/>
	<path class="st23" d="M3375.7,2124.4c9.9-8.5,4-55.8,4-55.8s-50.9-40.7-57.9-9.5c-7,31.2-48.3,45.2-71.9,49
		c-15.7,2.5-20.9,11-22.7,16.4H3375.7z"/>
	<path class="st5" d="M3381.4,2070.8c-47.1,7.3-64.3-3.9-64.3-3.9c0.6-46.4-13.7-151-33.3-271.1c-25.9-158.4-60.9-343.7-83.1-457.9
		c-12.7-65.7-21.2-107.9-21.2-107.9l38.5-0.8l192-3.8c0,0-14.4,212.5-10.4,317.4c0.9,25.1,2.9,44,6.4,52.4
		C3438.6,1674.8,3381.4,2070.8,3381.4,2070.8z"/>
	<path class="st23" d="M3399.5,1542.8c-26.1,48.8-91.4,174.5-115.7,252.9c-25.9-158.4-60.9-343.7-83.1-457.9
		c1.1-43.2,6.3-80.9,17.3-108.7l192-3.8C3409.9,1225.4,3395.5,1437.9,3399.5,1542.8z"/>
	<path class="st23" d="M3214,2124.4c9.9-8.5,4-55.8,4-55.8s-50.9-40.7-57.9-9.5c-7,31.2-48.3,45.2-71.9,49
		c-15.7,2.5-20.9,11-22.7,16.4H3214z"/>
	<path class="st5" d="M3096,1225.4c0,0,75.4,697.8,60.5,838.6c0,0,16.1,12.6,63.7,9.7c0,0,86.2-402,67.9-467.1
		c-12.7-45.2,37.8-364.7,37.8-364.7L3096,1225.4z"/>
	<path class="st22" d="M3281.6,726.3c0,0-95.9,47.9-143.5,26.1c0,0,20-25.9,42.4-36.6c-0.5-8.5-0.7-16.2-0.9-23
		c-0.4-22.7,0.7-35.5,0.7-35.5l41.4-30.1l28.1-20.4c-1.6,12.6-1.9,24.3-1.1,35C3252.4,697,3281.6,726.3,3281.6,726.3z"/>
	<path class="st24" d="M3248.6,641.8c0,0-22.4,44.6-69,50.9c-0.4-22.7,0.7-35.5,0.7-35.5l41.4-30.1
		C3239.8,634,3248.6,641.8,3248.6,641.8z"/>
	<path class="st22" d="M3169.7,654.4c0,0,85.8,30.6,104.1-23.2c18.2-53.8,41.6-86-12.5-107.8c-54-21.8-71.7-4.9-82.1,11.6
		C3168.7,551.4,3147.8,645.1,3169.7,654.4z"/>
	<path class="st11" d="M3416,1225.4c-13.4,28-310.9,26.8-325.6,7c-6-8-12.8-88.3-16.8-181.7c-2.2-51.7-3.4-107.5-3.2-157.1
		c0.4-81,5-145.9,16.4-150.9c63.8-27.7,103.2-45.3,186.5-42.7c25.7,0.8,48.9,15.6,60.1,38.7c20,41.4,48.4,114.8,50.6,201.4
		C3387.3,1073.7,3432.9,1190.1,3416,1225.4z"/>
	<path class="st5" d="M3166.6,838.6c0,0-9.7,139.6-93,212.1c-2.2-51.7-3.4-107.5-3.2-157.1C3095.3,860.3,3128.2,836.3,3166.6,838.6z
		"/>
	<path class="st11" d="M3207.7,703c0,0-91.5,0.6-120.2,27.2c-20.6,19.1-152.8,123.3-161.2,121.9c-8.4-1.4-93.5-171.3-93.5-171.3
		s-42,3.6-49,21.7c0,0,39.6,212.2,125,258.3c0,0,215.9-40.9,279.9-112.3C3221.7,811.7,3207.7,703,3207.7,703z"/>
	<path class="st5" d="M3173.5,493c0,0,5.1,51.3,20.5,65.3c15.4,14,11.3,33.3,13,36.1c1.7,2.8,17.6-5.4,20.4-0.7
		c6.5,10.8-3.6,18.8-10,21.4c-6.4,2.6,16.3,46.6,32.9,48.3c28.7,2.8,73.1-76.6,76.9-99.9c4.9-30.4-12.3-77.9-61.8-75.6
		C3187.6,491.5,3171.9,474.6,3173.5,493z"/>
	<g>
		<rect x="6704.8" y="268.5" class="st6" width="91.7" height="571.3"/>
		<rect x="6859.2" y="109.3" class="st6" width="91.7" height="730.6"/>
		<rect x="7023.2" y="406.7" class="st6" width="91.7" height="433.2"/>
		<path class="st6" d="M6945.9,0h-77.7c-4.4,0-8,3.6-8,8s3.6,8,8,8h77.7c4.4,0,8-3.6,8-8S6950.3,0,6945.9,0z"/>
		<path class="st6" d="M6885.9,45.3c4.4,0,8-3.6,8-8c0-4.4-3.6-8-8-8h-17.7c-4.4,0-8,3.6-8,8c0,4.4,3.6,8,8,8H6885.9z"/>
		<path class="st6" d="M7107.8,321.4h-77.7c-4.4,0-8,3.6-8,8l0,0c0,4.4,3.6,8,8,8h77.7c4.4,0,8-3.6,8-8l0,0
			C7115.9,325,7112.3,321.4,7107.8,321.4z"/>
		<path class="st6" d="M7030.2,366.7h17.7c4.4,0,8-3.6,8-8c0-4.4-3.6-8-8-8h-17.7c-4.4,0-8,3.6-8,8
			C7022.1,363.1,7025.8,366.7,7030.2,366.7z"/>
	</g>
</g>
</svg>
