<?xml version="1.0" encoding="utf-8"?>
<!-- Generator: Adobe Illustrator 24.1.3, SVG Export Plug-In . SVG Version: 6.00 Build 0)  -->
<svg version="1.1" xmlns="http://www.w3.org/2000/svg" xmlns:xlink="http://www.w3.org/1999/xlink" x="0px" y="0px"
	 viewBox="0 0 3143.4 2029.7" style="enable-background:new 0 0 3143.4 2029.7;" xml:space="preserve">
<style type="text/css">
	.st0{fill:#DBDEF2;}
	.st1{fill:#5D60C4;}
	.st2{fill:#0FF083;}
	.st3{fill:#373F9C;}
	.st4{fill:#9FA1D5;}
	.st5{opacity:0.7;fill:#FFFFFF;}
	.st6{font-family:'Montserrat-Medium';}
	.st7{font-size:123.7398px;}
	.st8{opacity:0.6;fill:none;stroke:#FFFFFF;stroke-width:0.25;stroke-miterlimit:10;}
	.st9{font-size:126.8881px;}
	.st10{display:none;}
	.st11{display:inline;}
	.st12{fill:none;stroke:#6F6F9B;stroke-width:0.25;stroke-miterlimit:10;}
	.st13{font-size:93px;}
	.st14{fill:#6F6F9B;}
	.st15{font-size:95.2642px;}
</style>
<g id="Calque_1">
	<g>
		
			<ellipse transform="matrix(0.7071 -0.7071 0.7071 0.7071 -264.9735 1403.7063)" class="st0" cx="1561.9" cy="1021.7" rx="1011.2" ry="1011.2"/>
		<path class="st1" d="M2202.9,1694.7L1568,1059.8v891.5C1796.9,1949.8,2025.1,1864.2,2202.9,1694.7z"/>
		<path class="st2" d="M1522.6,950.4l22.7,22.7l640.6-640.6C1826.5,6.6,1274,12.2,920.9,348.7L1522.6,950.4z"/>
		<path class="st3" d="M1522.6,1014.5L888.9,380.7c-347.1,364.2-342.1,940.7,15.6,1298.4c171.5,171.5,393.5,261.9,618.1,271.4
			L1522.6,1014.5z"/>
		<path class="st4" d="M1577.4,1005.1l657.6,657.6c347.1-364.2,342.1-940.7-15.6-1298.4c-0.2-0.2-0.4-0.4-0.6-0.6L1577.4,1005.1z"/>
		<circle class="st0" cx="1561.9" cy="1021.7" r="348.5"/>
		<text transform="matrix(1 0 0 1 1454.3628 447.9865)" class="st5 st6 st7">25%</text>
		<text transform="matrix(1 0 0 1 2104.4038 1059.8146)" class="st5 st6 st7">25%</text>
		<text transform="matrix(1 0 0 1 809.0747 1312.6075)" class="st5 st6 st7">37.5%</text>
		<text transform="matrix(1 0 0 1 1649.7085 1662.6876)" class="st5 st6 st7">12.5%</text>
		<polyline class="st8" points="936.1,1386.9 703.6,1626 550.8,1626 		"/>
		<polyline class="st8" points="1333.3,388.6 1100.7,176.2 850.6,176.2 		"/>
		<polyline class="st8" points="1863.8,1798.2 1999.4,1937.9 2172.6,1937.9 		"/>
		<polyline class="st8" points="2259.4,1153.1 2395,1292.8 2629.2,1292.8 		"/>
		<text transform="matrix(1 0 0 1 739.7222 224.8693)" class="st2 st6 st9">A</text>
		<text transform="matrix(1 0 0 1 426.4526 1662.6876)" class="st3 st6 st9">B</text>
		<text transform="matrix(1 0 0 1 2689.7349 1335.8243)" class="st4 st6 st9">C</text>
		<text transform="matrix(1 0 0 1 2229.2251 1986.5411)" class="st1 st6 st9">D</text>
	</g>
</g>
<g id="Calque_2" class="st10">
	<g class="st11">
		<g>
			<line class="st12" x1="238" y1="1821.8" x2="3143.4" y2="1821.8"/>
			<line class="st12" x1="238" y1="1394" x2="3143.4" y2="1394"/>
			<line class="st12" x1="238" y1="966.3" x2="3143.4" y2="966.3"/>
			<line class="st12" x1="238" y1="538.6" x2="3143.4" y2="538.6"/>
			<line class="st12" x1="238" y1="110.8" x2="3143.4" y2="110.8"/>
		</g>
		<rect x="480.7" y="861.6" class="st0" width="297.9" height="852.7"/>
		<rect x="1005.9" y="1070.4" class="st2" width="297.9" height="643.8"/>
		<rect x="1531" y="541.5" class="st4" width="297.9" height="1172.7"/>
		<rect x="2056.1" y="757.6" class="st1" width="297.9" height="956.6"/>
		<rect x="2581.3" y="186.9" class="st3" width="297.9" height="1527.3"/>
		<text transform="matrix(1 0 0 1 595.6544 2010.1954)" class="st0 st6 st13">A</text>
		<text transform="matrix(1 0 0 1 1119.6129 2010.1954)" class="st2 st6 st13">B</text>
		<text transform="matrix(1 0 0 1 1646.3151 2010.1954)" class="st4 st6 st13">C</text>
		<text transform="matrix(1 0 0 1 2166.6465 2010.1954)" class="st1 st6 st13">D</text>
		<text transform="matrix(1 0 0 1 2699.0312 2010.1954)" class="st3 st6 st13">E</text>
		<text transform="matrix(1 0 0 1 128.815 1842.1857)" class="st14 st6 st15">0</text>
		<text transform="matrix(1 0 0 1 74.2286 1409.5328)" class="st14 st6 st15">50</text>
		<text transform="matrix(1 0 0 1 30.2164 976.8908)" class="st14 st6 st15">100</text>
		<text transform="matrix(1 0 0 1 39.0758 544.2385)" class="st14 st6 st15">150</text>
		<g>
			<text transform="matrix(1 0 0 1 10.7726 111.5856)" class="st14 st6 st15">200</text>
		</g>
	</g>
</g>
</svg>
